<?xml version="1.0" encoding="UTF-8" standalone="no" ?>
<!DOCTYPE svg PUBLIC "-//W3C//DTD SVG 1.1//EN" "http://www.w3.org/Graphics/SVG/1.1/DTD/svg11.dtd">
<svg xmlns="http://www.w3.org/2000/svg" xmlns:xlink="http://www.w3.org/1999/xlink" version="1.1" width="600" height="300" viewBox="0 0 600 300" xml:space="preserve">
<desc>Created with Fabric.js 5.2.4</desc>
<defs>
</defs>
<rect x="0" y="0" width="100%" height="100%" fill="transparent"></rect>
<g transform="matrix(Infinity NaN NaN Infinity 0 0)" id="74c17294-f97a-4842-84c5-37df1d6a1314"  >
</g>
<g transform="matrix(1 0 0 1 300 150)" id="9c0897c3-1d65-40d2-9955-d35e74eb77f7"  >
<rect style="stroke: none; stroke-width: 1; stroke-dasharray: none; stroke-linecap: butt; stroke-dashoffset: 0; stroke-linejoin: miter; stroke-miterlimit: 4; fill: rgb(90,86,86); fill-rule: nonzero; opacity: 1; visibility: hidden;" vector-effect="non-scaling-stroke"  x="-300" y="-150" rx="0" ry="0" width="600" height="300" />
</g>
<g transform="matrix(0.29 0 0 0.29 300 225.17)"  >
<path style="stroke: rgb(0,0,0); stroke-width: 0; stroke-dasharray: none; stroke-linecap: butt; stroke-dashoffset: 0; stroke-linejoin: miter; stroke-miterlimit: 4; fill: rgb(255,255,255); fill-rule: nonzero; opacity: 1;" vector-effect="non-scaling-stroke"  transform=" translate(-256, -256)" d="M 186.438 20.56 L 173.254 46.925 C 180.054 46.665 186.88 46.437 193.724 46.239 L 197.564 38.559 L 314.438 38.559 L 318.20799999999997 46.099 C 325.046 46.285999999999994 331.866 46.507 338.664 46.75899999999999 L 325.562 20.558999999999994 L 186.437 20.558999999999994 z M 255.998 63.30199999999999 C 210.24099999999999 63.35799999999999 164.546 64.868 120.618 67.66499999999999 C 117.378 118.24499999999999 112.21799999999999 168.652 119.832 213.489 C 209.129 225.88400000000001 299.93399999999997 226.474 392.596 213.435 C 399.651 182.447 397.713 128.755 391.556 67.54500000000002 C 347.582 64.65200000000002 301.82599999999996 63.24500000000002 255.998 63.301000000000016 z M 409.78099999999995 68.842 C 416.20099999999996 132.962 418.89399999999995 188.667 408.64599999999996 224.062 L 407.03599999999994 229.622 L 401.30999999999995 230.46400000000003 C 302.50999999999993 244.99200000000002 205.69699999999995 244.27400000000003 110.70499999999993 230.46600000000004 L 104.41999999999993 229.55200000000005 L 103.17399999999994 223.32200000000006 C 93.28399999999993 173.83200000000005 99.08899999999994 120.53700000000006 102.50999999999993 68.90200000000007 C 97.61999999999993 69.25600000000007 92.74499999999993 69.62200000000007 87.90799999999993 70.00900000000007 C 79.31199999999993 128.57700000000006 78.51799999999993 186.96600000000007 87.85799999999993 245.30100000000007 C 198.09799999999993 257.38900000000007 310.1329999999999 257.5060000000001 424.0609999999999 245.29100000000008 C 432.56299999999993 187.46100000000007 432.35099999999994 129.04100000000008 424.0439999999999 69.9780000000001 C 419.3189999999999 69.57800000000009 414.5589999999999 69.2020000000001 409.7819999999999 68.8380000000001 z M 255.966 92.3 C 288.492 92.27499999999999 321.033 95.04599999999999 353.54 100.69 L 361 101.985 L 361 109.557 C 361 125.111 362.683 144.662 348.31 159.80700000000002 C 338.398 170.251 322.655 177.144 297 180.39200000000002 L 297 198.55600000000004 L 215 198.55600000000004 L 215 180.10400000000004 C 191.008 176.73400000000004 175.648 169.92900000000003 165.637 159.91900000000004 C 150.807 145.093 151 125.56 151 109.56 L 151 101.96600000000001 L 158.484 100.688 C 190.928 95.148 223.43900000000002 92.32600000000001 255.964 92.302 z M 255.978 110.294 C 227.018 110.316 198.065 112.738 169.12 117.28999999999999 C 169.385 129.57 170.755 139.58599999999998 178.363 147.194 C 184.277 153.10799999999998 195.315 158.60999999999999 215 161.77599999999998 L 215 132.55599999999998 L 297 132.55599999999998 L 297 162.06599999999997 C 318.367 158.95099999999996 329.65999999999997 153.31099999999998 335.254 147.41599999999997 C 342.28700000000003 140.00599999999997 342.95000000000005 129.91399999999996 342.98400000000004 117.29199999999997 C 313.98400000000004 112.66199999999998 284.97800000000007 110.27199999999998 255.97700000000003 110.29399999999997 z M 233 150.56 L 233 180.56 L 279 180.56 L 279 150.56 L 233 150.56 z M 442.674 242.98000000000002 C 442.171 246.60500000000002 441.632 250.23000000000002 441.06399999999996 253.85000000000002 C 441.27799999999996 256.202 441.484 258.55600000000004 441.69399999999996 260.91 L 471 290.213 L 471 267.973 L 442.674 242.978 z M 69.18899999999996 243.10000000000002 L 41 267.973 L 41 290.213 L 70.318 260.89500000000004 C 70.523 258.56800000000004 70.724 256.24000000000007 70.934 253.91300000000004 C 70.316 250.30800000000005 69.732 246.70300000000003 69.189 243.10000000000005 z M 423.823 263.497 C 413.53299999999996 264.587 403.25899999999996 265.57300000000004 392.99899999999997 266.464 L 392.99899999999997 340.55899999999997 L 408.99899999999997 340.55899999999997 L 408.99899999999997 406.55899999999997 L 392.99899999999997 406.55899999999997 L 392.99899999999997 487.174 C 403.31699999999995 486.541 413.62899999999996 485.861 423.92699999999996 485.092 C 433.37199999999996 411.082 430.405 337.394 423.823 263.496 z M 88.24699999999996 263.527 C 81.725 338.09 78.58 412.1 88.06 485.1 C 98.384 485.89000000000004 108.69800000000001 486.60400000000004 119 487.245 L 119 406.56 L 103 406.56 L 103 340.56 L 119 340.56 L 119 266.536 C 108.734 265.634 98.483 264.633 88.248 263.526 z M 374.99899999999997 267.92699999999996 C 364.98499999999996 268.68699999999995 354.98499999999996 269.35099999999994 344.99899999999997 269.919 L 344.99899999999997 340.55899999999997 L 374.99899999999997 340.55899999999997 L 374.99899999999997 267.92699999999996 z M 136.99899999999997 268.01199999999994 L 136.99899999999997 340.55899999999997 L 166.99899999999997 340.55899999999997 L 166.99899999999997 270.00899999999996 C 156.98399999999998 269.441 146.98499999999996 268.77199999999993 136.99899999999997 268.01199999999994 z M 326.99899999999997 270.83699999999993 C 279.349 273.00999999999993 232.015 273.02699999999993 184.99899999999997 270.9149999999999 L 184.99899999999997 290.2289999999999 C 208.94899999999996 285.0639999999999 232.79899999999998 282.57699999999994 256.515 282.63899999999995 C 280.15299999999996 282.69899999999996 303.65999999999997 285.29299999999995 326.99899999999997 290.26499999999993 L 326.99899999999997 270.8349999999999 z M 68.05 288.62 L 41 315.67 L 41 372.56 L 64.06 372.56 C 64.436 344.573 65.94 316.585 68.05 288.62 z M 443.998 288.66700000000003 C 446.118 316.53900000000004 447.608 344.497 447.955 372.559 L 471 372.559 L 471 315.66900000000004 L 443.998 288.66600000000005 z M 256.47799999999995 300.617 C 232.79799999999994 300.55400000000003 208.99099999999996 303.194 184.99999999999994 308.66900000000004 L 184.99999999999994 340.559 L 200.99999999999994 340.559 L 200.99999999999994 359.002 C 218.03299999999996 364.348 232.72999999999993 367.495 246.99999999999994 368.428 L 246.99999999999994 365.558 L 264.99999999999994 365.558 L 264.99999999999994 368.426 C 279.2699999999999 367.49399999999997 293.9669999999999 364.346 310.99999999999994 359.001 L 310.99999999999994 340.56 L 326.99999999999994 340.56 L 326.99999999999994 308.694 C 303.5799999999999 303.427 280.09299999999996 300.678 256.477 300.61600000000004 z M 121 358.558 L 121 388.558 L 143 388.558 L 143 365.558 L 161 365.558 L 161 388.558 L 183 388.558 L 183 358.558 L 121 358.558 z M 329 358.558 L 329 388.558 L 351 388.558 L 351 365.558 L 369 365.558 L 369 388.558 L 391 388.558 L 391 358.558 L 329 358.558 z M 201 377.8 L 201 406.56 L 185 406.56 L 185 422.41700000000003 C 233.528 433.28200000000004 280.71299999999997 433.081 327 422.46200000000005 L 327 406.56 L 311 406.56 L 311 377.8 C 294.668 382.547 279.717 385.32 265 386.12600000000003 L 265 397.559 L 247 397.559 L 247 386.125 C 232.283 385.319 217.332 382.545 201 377.799 z M 41 390.56 L 41 404.56 L 64.14 404.56 C 64.05 399.89300000000003 63.997 395.226 63.977000000000004 390.56 L 41 390.56 z M 448.012 390.56 C 447.985 395.223 447.929 399.89 447.832 404.56 L 471 404.56 L 471 390.56 L 448.012 390.56 z M 137 406.56 L 137 426.358 C 143.137 433.572 148.222 436.128 151.934 436.202 C 155.668 436.277 160.631 434.08 167 426.412 L 167 406.56 L 161 406.56 L 161 413.56 L 143 413.56 L 143 406.56 L 137 406.56 z M 345 406.56 L 345 426.358 C 351.137 433.572 356.222 436.128 359.934 436.202 C 363.668 436.277 368.63100000000003 434.08 375 426.412 L 375 406.56 L 369 406.56 L 369 413.56 L 351 413.56 L 351 406.56 L 345 406.56 z M 41 422.56 L 41 457.714 C 46.596000000000004 463.224 49.677 465.964 52.846000000000004 467.02 C 55.300000000000004 467.83799999999997 60.559000000000005 468.16999999999996 67.891 468.337 C 66.34700000000001 453.087 65.305 437.827 64.68700000000001 422.55899999999997 L 41 422.55899999999997 z M 447.27 422.56 C 446.642 437.784 445.596 453.043 444.06 468.34000000000003 C 451.418 468.172 456.695 467.84000000000003 459.154 467.02000000000004 C 462.324 465.96400000000006 465.404 463.225 471 457.71400000000006 L 471 422.56 L 447.27 422.56 z M 185 440.842 L 185 490.34 C 232.55 491.84999999999997 279.877 491.786 327 490.26599999999996 L 327 440.9 C 280.68399999999997 450.92999999999995 233.26 451.085 185 440.84299999999996 z M 137 449.965 L 137 488.28299999999996 C 147.01 488.823 157.01 489.29099999999994 167 489.691 L 167 450.013 C 162.14 452.799 156.99 454.306 151.57 454.197 C 146.378 454.093 141.534 452.573 137 449.965 z M 345 449.965 L 345 489.61899999999997 C 355.01 489.21599999999995 365.01 488.741 375 488.207 L 375 450.013 C 370.14 452.799 364.99 454.306 359.57 454.197 C 354.378 454.093 349.534 452.573 345 449.965 z" stroke-linecap="round" />
</g>
<g transform="matrix(0.27 0 0 0.27 79.43 75.57)"  >
<path style="stroke: rgb(0,0,0); stroke-width: 0; stroke-dasharray: none; stroke-linecap: butt; stroke-dashoffset: 0; stroke-linejoin: miter; stroke-miterlimit: 4; fill: rgb(255,255,255); fill-rule: nonzero; opacity: 1;" vector-effect="non-scaling-stroke"  transform=" translate(-256, -256)" d="M 186.438 20.56 L 173.254 46.925 C 180.054 46.665 186.88 46.437 193.724 46.239 L 197.564 38.559 L 314.438 38.559 L 318.20799999999997 46.099 C 325.046 46.285999999999994 331.866 46.507 338.664 46.75899999999999 L 325.562 20.558999999999994 L 186.437 20.558999999999994 z M 255.998 63.30199999999999 C 210.24099999999999 63.35799999999999 164.546 64.868 120.618 67.66499999999999 C 117.378 118.24499999999999 112.21799999999999 168.652 119.832 213.489 C 209.129 225.88400000000001 299.93399999999997 226.474 392.596 213.435 C 399.651 182.447 397.713 128.755 391.556 67.54500000000002 C 347.582 64.65200000000002 301.82599999999996 63.24500000000002 255.998 63.301000000000016 z M 409.78099999999995 68.842 C 416.20099999999996 132.962 418.89399999999995 188.667 408.64599999999996 224.062 L 407.03599999999994 229.622 L 401.30999999999995 230.46400000000003 C 302.50999999999993 244.99200000000002 205.69699999999995 244.27400000000003 110.70499999999993 230.46600000000004 L 104.41999999999993 229.55200000000005 L 103.17399999999994 223.32200000000006 C 93.28399999999993 173.83200000000005 99.08899999999994 120.53700000000006 102.50999999999993 68.90200000000007 C 97.61999999999993 69.25600000000007 92.74499999999993 69.62200000000007 87.90799999999993 70.00900000000007 C 79.31199999999993 128.57700000000006 78.51799999999993 186.96600000000007 87.85799999999993 245.30100000000007 C 198.09799999999993 257.38900000000007 310.1329999999999 257.5060000000001 424.0609999999999 245.29100000000008 C 432.56299999999993 187.46100000000007 432.35099999999994 129.04100000000008 424.0439999999999 69.9780000000001 C 419.3189999999999 69.57800000000009 414.5589999999999 69.2020000000001 409.7819999999999 68.8380000000001 z M 255.966 92.3 C 288.492 92.27499999999999 321.033 95.04599999999999 353.54 100.69 L 361 101.985 L 361 109.557 C 361 125.111 362.683 144.662 348.31 159.80700000000002 C 338.398 170.251 322.655 177.144 297 180.39200000000002 L 297 198.55600000000004 L 215 198.55600000000004 L 215 180.10400000000004 C 191.008 176.73400000000004 175.648 169.92900000000003 165.637 159.91900000000004 C 150.807 145.093 151 125.56 151 109.56 L 151 101.96600000000001 L 158.484 100.688 C 190.928 95.148 223.43900000000002 92.32600000000001 255.964 92.302 z M 255.978 110.294 C 227.018 110.316 198.065 112.738 169.12 117.28999999999999 C 169.385 129.57 170.755 139.58599999999998 178.363 147.194 C 184.277 153.10799999999998 195.315 158.60999999999999 215 161.77599999999998 L 215 132.55599999999998 L 297 132.55599999999998 L 297 162.06599999999997 C 318.367 158.95099999999996 329.65999999999997 153.31099999999998 335.254 147.41599999999997 C 342.28700000000003 140.00599999999997 342.95000000000005 129.91399999999996 342.98400000000004 117.29199999999997 C 313.98400000000004 112.66199999999998 284.97800000000007 110.27199999999998 255.97700000000003 110.29399999999997 z M 233 150.56 L 233 180.56 L 279 180.56 L 279 150.56 L 233 150.56 z M 442.674 242.98000000000002 C 442.171 246.60500000000002 441.632 250.23000000000002 441.06399999999996 253.85000000000002 C 441.27799999999996 256.202 441.484 258.55600000000004 441.69399999999996 260.91 L 471 290.213 L 471 267.973 L 442.674 242.978 z M 69.18899999999996 243.10000000000002 L 41 267.973 L 41 290.213 L 70.318 260.89500000000004 C 70.523 258.56800000000004 70.724 256.24000000000007 70.934 253.91300000000004 C 70.316 250.30800000000005 69.732 246.70300000000003 69.189 243.10000000000005 z M 423.823 263.497 C 413.53299999999996 264.587 403.25899999999996 265.57300000000004 392.99899999999997 266.464 L 392.99899999999997 340.55899999999997 L 408.99899999999997 340.55899999999997 L 408.99899999999997 406.55899999999997 L 392.99899999999997 406.55899999999997 L 392.99899999999997 487.174 C 403.31699999999995 486.541 413.62899999999996 485.861 423.92699999999996 485.092 C 433.37199999999996 411.082 430.405 337.394 423.823 263.496 z M 88.24699999999996 263.527 C 81.725 338.09 78.58 412.1 88.06 485.1 C 98.384 485.89000000000004 108.69800000000001 486.60400000000004 119 487.245 L 119 406.56 L 103 406.56 L 103 340.56 L 119 340.56 L 119 266.536 C 108.734 265.634 98.483 264.633 88.248 263.526 z M 374.99899999999997 267.92699999999996 C 364.98499999999996 268.68699999999995 354.98499999999996 269.35099999999994 344.99899999999997 269.919 L 344.99899999999997 340.55899999999997 L 374.99899999999997 340.55899999999997 L 374.99899999999997 267.92699999999996 z M 136.99899999999997 268.01199999999994 L 136.99899999999997 340.55899999999997 L 166.99899999999997 340.55899999999997 L 166.99899999999997 270.00899999999996 C 156.98399999999998 269.441 146.98499999999996 268.77199999999993 136.99899999999997 268.01199999999994 z M 326.99899999999997 270.83699999999993 C 279.349 273.00999999999993 232.015 273.02699999999993 184.99899999999997 270.9149999999999 L 184.99899999999997 290.2289999999999 C 208.94899999999996 285.0639999999999 232.79899999999998 282.57699999999994 256.515 282.63899999999995 C 280.15299999999996 282.69899999999996 303.65999999999997 285.29299999999995 326.99899999999997 290.26499999999993 L 326.99899999999997 270.8349999999999 z M 68.05 288.62 L 41 315.67 L 41 372.56 L 64.06 372.56 C 64.436 344.573 65.94 316.585 68.05 288.62 z M 443.998 288.66700000000003 C 446.118 316.53900000000004 447.608 344.497 447.955 372.559 L 471 372.559 L 471 315.66900000000004 L 443.998 288.66600000000005 z M 256.47799999999995 300.617 C 232.79799999999994 300.55400000000003 208.99099999999996 303.194 184.99999999999994 308.66900000000004 L 184.99999999999994 340.559 L 200.99999999999994 340.559 L 200.99999999999994 359.002 C 218.03299999999996 364.348 232.72999999999993 367.495 246.99999999999994 368.428 L 246.99999999999994 365.558 L 264.99999999999994 365.558 L 264.99999999999994 368.426 C 279.2699999999999 367.49399999999997 293.9669999999999 364.346 310.99999999999994 359.001 L 310.99999999999994 340.56 L 326.99999999999994 340.56 L 326.99999999999994 308.694 C 303.5799999999999 303.427 280.09299999999996 300.678 256.477 300.61600000000004 z M 121 358.558 L 121 388.558 L 143 388.558 L 143 365.558 L 161 365.558 L 161 388.558 L 183 388.558 L 183 358.558 L 121 358.558 z M 329 358.558 L 329 388.558 L 351 388.558 L 351 365.558 L 369 365.558 L 369 388.558 L 391 388.558 L 391 358.558 L 329 358.558 z M 201 377.8 L 201 406.56 L 185 406.56 L 185 422.41700000000003 C 233.528 433.28200000000004 280.71299999999997 433.081 327 422.46200000000005 L 327 406.56 L 311 406.56 L 311 377.8 C 294.668 382.547 279.717 385.32 265 386.12600000000003 L 265 397.559 L 247 397.559 L 247 386.125 C 232.283 385.319 217.332 382.545 201 377.799 z M 41 390.56 L 41 404.56 L 64.14 404.56 C 64.05 399.89300000000003 63.997 395.226 63.977000000000004 390.56 L 41 390.56 z M 448.012 390.56 C 447.985 395.223 447.929 399.89 447.832 404.56 L 471 404.56 L 471 390.56 L 448.012 390.56 z M 137 406.56 L 137 426.358 C 143.137 433.572 148.222 436.128 151.934 436.202 C 155.668 436.277 160.631 434.08 167 426.412 L 167 406.56 L 161 406.56 L 161 413.56 L 143 413.56 L 143 406.56 L 137 406.56 z M 345 406.56 L 345 426.358 C 351.137 433.572 356.222 436.128 359.934 436.202 C 363.668 436.277 368.63100000000003 434.08 375 426.412 L 375 406.56 L 369 406.56 L 369 413.56 L 351 413.56 L 351 406.56 L 345 406.56 z M 41 422.56 L 41 457.714 C 46.596000000000004 463.224 49.677 465.964 52.846000000000004 467.02 C 55.300000000000004 467.83799999999997 60.559000000000005 468.16999999999996 67.891 468.337 C 66.34700000000001 453.087 65.305 437.827 64.68700000000001 422.55899999999997 L 41 422.55899999999997 z M 447.27 422.56 C 446.642 437.784 445.596 453.043 444.06 468.34000000000003 C 451.418 468.172 456.695 467.84000000000003 459.154 467.02000000000004 C 462.324 465.96400000000006 465.404 463.225 471 457.71400000000006 L 471 422.56 L 447.27 422.56 z M 185 440.842 L 185 490.34 C 232.55 491.84999999999997 279.877 491.786 327 490.26599999999996 L 327 440.9 C 280.68399999999997 450.92999999999995 233.26 451.085 185 440.84299999999996 z M 137 449.965 L 137 488.28299999999996 C 147.01 488.823 157.01 489.29099999999994 167 489.691 L 167 450.013 C 162.14 452.799 156.99 454.306 151.57 454.197 C 146.378 454.093 141.534 452.573 137 449.965 z M 345 449.965 L 345 489.61899999999997 C 355.01 489.21599999999995 365.01 488.741 375 488.207 L 375 450.013 C 370.14 452.799 364.99 454.306 359.57 454.197 C 354.378 454.093 349.534 452.573 345 449.965 z" stroke-linecap="round" />
</g>
<g transform="matrix(0.27 0 0 0.27 300 75.89)"  >
<path style="stroke: rgb(0,0,0); stroke-width: 0; stroke-dasharray: none; stroke-linecap: butt; stroke-dashoffset: 0; stroke-linejoin: miter; stroke-miterlimit: 4; fill: rgb(255,255,255); fill-rule: nonzero; opacity: 1;" vector-effect="non-scaling-stroke"  transform=" translate(-256, -256)" d="M 186.438 20.56 L 173.254 46.925 C 180.054 46.665 186.88 46.437 193.724 46.239 L 197.564 38.559 L 314.438 38.559 L 318.20799999999997 46.099 C 325.046 46.285999999999994 331.866 46.507 338.664 46.75899999999999 L 325.562 20.558999999999994 L 186.437 20.558999999999994 z M 255.998 63.30199999999999 C 210.24099999999999 63.35799999999999 164.546 64.868 120.618 67.66499999999999 C 117.378 118.24499999999999 112.21799999999999 168.652 119.832 213.489 C 209.129 225.88400000000001 299.93399999999997 226.474 392.596 213.435 C 399.651 182.447 397.713 128.755 391.556 67.54500000000002 C 347.582 64.65200000000002 301.82599999999996 63.24500000000002 255.998 63.301000000000016 z M 409.78099999999995 68.842 C 416.20099999999996 132.962 418.89399999999995 188.667 408.64599999999996 224.062 L 407.03599999999994 229.622 L 401.30999999999995 230.46400000000003 C 302.50999999999993 244.99200000000002 205.69699999999995 244.27400000000003 110.70499999999993 230.46600000000004 L 104.41999999999993 229.55200000000005 L 103.17399999999994 223.32200000000006 C 93.28399999999993 173.83200000000005 99.08899999999994 120.53700000000006 102.50999999999993 68.90200000000007 C 97.61999999999993 69.25600000000007 92.74499999999993 69.62200000000007 87.90799999999993 70.00900000000007 C 79.31199999999993 128.57700000000006 78.51799999999993 186.96600000000007 87.85799999999993 245.30100000000007 C 198.09799999999993 257.38900000000007 310.1329999999999 257.5060000000001 424.0609999999999 245.29100000000008 C 432.56299999999993 187.46100000000007 432.35099999999994 129.04100000000008 424.0439999999999 69.9780000000001 C 419.3189999999999 69.57800000000009 414.5589999999999 69.2020000000001 409.7819999999999 68.8380000000001 z M 255.966 92.3 C 288.492 92.27499999999999 321.033 95.04599999999999 353.54 100.69 L 361 101.985 L 361 109.557 C 361 125.111 362.683 144.662 348.31 159.80700000000002 C 338.398 170.251 322.655 177.144 297 180.39200000000002 L 297 198.55600000000004 L 215 198.55600000000004 L 215 180.10400000000004 C 191.008 176.73400000000004 175.648 169.92900000000003 165.637 159.91900000000004 C 150.807 145.093 151 125.56 151 109.56 L 151 101.96600000000001 L 158.484 100.688 C 190.928 95.148 223.43900000000002 92.32600000000001 255.964 92.302 z M 255.978 110.294 C 227.018 110.316 198.065 112.738 169.12 117.28999999999999 C 169.385 129.57 170.755 139.58599999999998 178.363 147.194 C 184.277 153.10799999999998 195.315 158.60999999999999 215 161.77599999999998 L 215 132.55599999999998 L 297 132.55599999999998 L 297 162.06599999999997 C 318.367 158.95099999999996 329.65999999999997 153.31099999999998 335.254 147.41599999999997 C 342.28700000000003 140.00599999999997 342.95000000000005 129.91399999999996 342.98400000000004 117.29199999999997 C 313.98400000000004 112.66199999999998 284.97800000000007 110.27199999999998 255.97700000000003 110.29399999999997 z M 233 150.56 L 233 180.56 L 279 180.56 L 279 150.56 L 233 150.56 z M 442.674 242.98000000000002 C 442.171 246.60500000000002 441.632 250.23000000000002 441.06399999999996 253.85000000000002 C 441.27799999999996 256.202 441.484 258.55600000000004 441.69399999999996 260.91 L 471 290.213 L 471 267.973 L 442.674 242.978 z M 69.18899999999996 243.10000000000002 L 41 267.973 L 41 290.213 L 70.318 260.89500000000004 C 70.523 258.56800000000004 70.724 256.24000000000007 70.934 253.91300000000004 C 70.316 250.30800000000005 69.732 246.70300000000003 69.189 243.10000000000005 z M 423.823 263.497 C 413.53299999999996 264.587 403.25899999999996 265.57300000000004 392.99899999999997 266.464 L 392.99899999999997 340.55899999999997 L 408.99899999999997 340.55899999999997 L 408.99899999999997 406.55899999999997 L 392.99899999999997 406.55899999999997 L 392.99899999999997 487.174 C 403.31699999999995 486.541 413.62899999999996 485.861 423.92699999999996 485.092 C 433.37199999999996 411.082 430.405 337.394 423.823 263.496 z M 88.24699999999996 263.527 C 81.725 338.09 78.58 412.1 88.06 485.1 C 98.384 485.89000000000004 108.69800000000001 486.60400000000004 119 487.245 L 119 406.56 L 103 406.56 L 103 340.56 L 119 340.56 L 119 266.536 C 108.734 265.634 98.483 264.633 88.248 263.526 z M 374.99899999999997 267.92699999999996 C 364.98499999999996 268.68699999999995 354.98499999999996 269.35099999999994 344.99899999999997 269.919 L 344.99899999999997 340.55899999999997 L 374.99899999999997 340.55899999999997 L 374.99899999999997 267.92699999999996 z M 136.99899999999997 268.01199999999994 L 136.99899999999997 340.55899999999997 L 166.99899999999997 340.55899999999997 L 166.99899999999997 270.00899999999996 C 156.98399999999998 269.441 146.98499999999996 268.77199999999993 136.99899999999997 268.01199999999994 z M 326.99899999999997 270.83699999999993 C 279.349 273.00999999999993 232.015 273.02699999999993 184.99899999999997 270.9149999999999 L 184.99899999999997 290.2289999999999 C 208.94899999999996 285.0639999999999 232.79899999999998 282.57699999999994 256.515 282.63899999999995 C 280.15299999999996 282.69899999999996 303.65999999999997 285.29299999999995 326.99899999999997 290.26499999999993 L 326.99899999999997 270.8349999999999 z M 68.05 288.62 L 41 315.67 L 41 372.56 L 64.06 372.56 C 64.436 344.573 65.94 316.585 68.05 288.62 z M 443.998 288.66700000000003 C 446.118 316.53900000000004 447.608 344.497 447.955 372.559 L 471 372.559 L 471 315.66900000000004 L 443.998 288.66600000000005 z M 256.47799999999995 300.617 C 232.79799999999994 300.55400000000003 208.99099999999996 303.194 184.99999999999994 308.66900000000004 L 184.99999999999994 340.559 L 200.99999999999994 340.559 L 200.99999999999994 359.002 C 218.03299999999996 364.348 232.72999999999993 367.495 246.99999999999994 368.428 L 246.99999999999994 365.558 L 264.99999999999994 365.558 L 264.99999999999994 368.426 C 279.2699999999999 367.49399999999997 293.9669999999999 364.346 310.99999999999994 359.001 L 310.99999999999994 340.56 L 326.99999999999994 340.56 L 326.99999999999994 308.694 C 303.5799999999999 303.427 280.09299999999996 300.678 256.477 300.61600000000004 z M 121 358.558 L 121 388.558 L 143 388.558 L 143 365.558 L 161 365.558 L 161 388.558 L 183 388.558 L 183 358.558 L 121 358.558 z M 329 358.558 L 329 388.558 L 351 388.558 L 351 365.558 L 369 365.558 L 369 388.558 L 391 388.558 L 391 358.558 L 329 358.558 z M 201 377.8 L 201 406.56 L 185 406.56 L 185 422.41700000000003 C 233.528 433.28200000000004 280.71299999999997 433.081 327 422.46200000000005 L 327 406.56 L 311 406.56 L 311 377.8 C 294.668 382.547 279.717 385.32 265 386.12600000000003 L 265 397.559 L 247 397.559 L 247 386.125 C 232.283 385.319 217.332 382.545 201 377.799 z M 41 390.56 L 41 404.56 L 64.14 404.56 C 64.05 399.89300000000003 63.997 395.226 63.977000000000004 390.56 L 41 390.56 z M 448.012 390.56 C 447.985 395.223 447.929 399.89 447.832 404.56 L 471 404.56 L 471 390.56 L 448.012 390.56 z M 137 406.56 L 137 426.358 C 143.137 433.572 148.222 436.128 151.934 436.202 C 155.668 436.277 160.631 434.08 167 426.412 L 167 406.56 L 161 406.56 L 161 413.56 L 143 413.56 L 143 406.56 L 137 406.56 z M 345 406.56 L 345 426.358 C 351.137 433.572 356.222 436.128 359.934 436.202 C 363.668 436.277 368.63100000000003 434.08 375 426.412 L 375 406.56 L 369 406.56 L 369 413.56 L 351 413.56 L 351 406.56 L 345 406.56 z M 41 422.56 L 41 457.714 C 46.596000000000004 463.224 49.677 465.964 52.846000000000004 467.02 C 55.300000000000004 467.83799999999997 60.559000000000005 468.16999999999996 67.891 468.337 C 66.34700000000001 453.087 65.305 437.827 64.68700000000001 422.55899999999997 L 41 422.55899999999997 z M 447.27 422.56 C 446.642 437.784 445.596 453.043 444.06 468.34000000000003 C 451.418 468.172 456.695 467.84000000000003 459.154 467.02000000000004 C 462.324 465.96400000000006 465.404 463.225 471 457.71400000000006 L 471 422.56 L 447.27 422.56 z M 185 440.842 L 185 490.34 C 232.55 491.84999999999997 279.877 491.786 327 490.26599999999996 L 327 440.9 C 280.68399999999997 450.92999999999995 233.26 451.085 185 440.84299999999996 z M 137 449.965 L 137 488.28299999999996 C 147.01 488.823 157.01 489.29099999999994 167 489.691 L 167 450.013 C 162.14 452.799 156.99 454.306 151.57 454.197 C 146.378 454.093 141.534 452.573 137 449.965 z M 345 449.965 L 345 489.61899999999997 C 355.01 489.21599999999995 365.01 488.741 375 488.207 L 375 450.013 C 370.14 452.799 364.99 454.306 359.57 454.197 C 354.378 454.093 349.534 452.573 345 449.965 z" stroke-linecap="round" />
</g>
<g transform="matrix(0.29 0 0 0.29 517.59 79.61)"  >
<path style="stroke: rgb(0,0,0); stroke-width: 0; stroke-dasharray: none; stroke-linecap: butt; stroke-dashoffset: 0; stroke-linejoin: miter; stroke-miterlimit: 4; fill: rgb(255,255,255); fill-rule: nonzero; opacity: 1;" vector-effect="non-scaling-stroke"  transform=" translate(-256, -256)" d="M 186.438 20.56 L 173.254 46.925 C 180.054 46.665 186.88 46.437 193.724 46.239 L 197.564 38.559 L 314.438 38.559 L 318.20799999999997 46.099 C 325.046 46.285999999999994 331.866 46.507 338.664 46.75899999999999 L 325.562 20.558999999999994 L 186.437 20.558999999999994 z M 255.998 63.30199999999999 C 210.24099999999999 63.35799999999999 164.546 64.868 120.618 67.66499999999999 C 117.378 118.24499999999999 112.21799999999999 168.652 119.832 213.489 C 209.129 225.88400000000001 299.93399999999997 226.474 392.596 213.435 C 399.651 182.447 397.713 128.755 391.556 67.54500000000002 C 347.582 64.65200000000002 301.82599999999996 63.24500000000002 255.998 63.301000000000016 z M 409.78099999999995 68.842 C 416.20099999999996 132.962 418.89399999999995 188.667 408.64599999999996 224.062 L 407.03599999999994 229.622 L 401.30999999999995 230.46400000000003 C 302.50999999999993 244.99200000000002 205.69699999999995 244.27400000000003 110.70499999999993 230.46600000000004 L 104.41999999999993 229.55200000000005 L 103.17399999999994 223.32200000000006 C 93.28399999999993 173.83200000000005 99.08899999999994 120.53700000000006 102.50999999999993 68.90200000000007 C 97.61999999999993 69.25600000000007 92.74499999999993 69.62200000000007 87.90799999999993 70.00900000000007 C 79.31199999999993 128.57700000000006 78.51799999999993 186.96600000000007 87.85799999999993 245.30100000000007 C 198.09799999999993 257.38900000000007 310.1329999999999 257.5060000000001 424.0609999999999 245.29100000000008 C 432.56299999999993 187.46100000000007 432.35099999999994 129.04100000000008 424.0439999999999 69.9780000000001 C 419.3189999999999 69.57800000000009 414.5589999999999 69.2020000000001 409.7819999999999 68.8380000000001 z M 255.966 92.3 C 288.492 92.27499999999999 321.033 95.04599999999999 353.54 100.69 L 361 101.985 L 361 109.557 C 361 125.111 362.683 144.662 348.31 159.80700000000002 C 338.398 170.251 322.655 177.144 297 180.39200000000002 L 297 198.55600000000004 L 215 198.55600000000004 L 215 180.10400000000004 C 191.008 176.73400000000004 175.648 169.92900000000003 165.637 159.91900000000004 C 150.807 145.093 151 125.56 151 109.56 L 151 101.96600000000001 L 158.484 100.688 C 190.928 95.148 223.43900000000002 92.32600000000001 255.964 92.302 z M 255.978 110.294 C 227.018 110.316 198.065 112.738 169.12 117.28999999999999 C 169.385 129.57 170.755 139.58599999999998 178.363 147.194 C 184.277 153.10799999999998 195.315 158.60999999999999 215 161.77599999999998 L 215 132.55599999999998 L 297 132.55599999999998 L 297 162.06599999999997 C 318.367 158.95099999999996 329.65999999999997 153.31099999999998 335.254 147.41599999999997 C 342.28700000000003 140.00599999999997 342.95000000000005 129.91399999999996 342.98400000000004 117.29199999999997 C 313.98400000000004 112.66199999999998 284.97800000000007 110.27199999999998 255.97700000000003 110.29399999999997 z M 233 150.56 L 233 180.56 L 279 180.56 L 279 150.56 L 233 150.56 z M 442.674 242.98000000000002 C 442.171 246.60500000000002 441.632 250.23000000000002 441.06399999999996 253.85000000000002 C 441.27799999999996 256.202 441.484 258.55600000000004 441.69399999999996 260.91 L 471 290.213 L 471 267.973 L 442.674 242.978 z M 69.18899999999996 243.10000000000002 L 41 267.973 L 41 290.213 L 70.318 260.89500000000004 C 70.523 258.56800000000004 70.724 256.24000000000007 70.934 253.91300000000004 C 70.316 250.30800000000005 69.732 246.70300000000003 69.189 243.10000000000005 z M 423.823 263.497 C 413.53299999999996 264.587 403.25899999999996 265.57300000000004 392.99899999999997 266.464 L 392.99899999999997 340.55899999999997 L 408.99899999999997 340.55899999999997 L 408.99899999999997 406.55899999999997 L 392.99899999999997 406.55899999999997 L 392.99899999999997 487.174 C 403.31699999999995 486.541 413.62899999999996 485.861 423.92699999999996 485.092 C 433.37199999999996 411.082 430.405 337.394 423.823 263.496 z M 88.24699999999996 263.527 C 81.725 338.09 78.58 412.1 88.06 485.1 C 98.384 485.89000000000004 108.69800000000001 486.60400000000004 119 487.245 L 119 406.56 L 103 406.56 L 103 340.56 L 119 340.56 L 119 266.536 C 108.734 265.634 98.483 264.633 88.248 263.526 z M 374.99899999999997 267.92699999999996 C 364.98499999999996 268.68699999999995 354.98499999999996 269.35099999999994 344.99899999999997 269.919 L 344.99899999999997 340.55899999999997 L 374.99899999999997 340.55899999999997 L 374.99899999999997 267.92699999999996 z M 136.99899999999997 268.01199999999994 L 136.99899999999997 340.55899999999997 L 166.99899999999997 340.55899999999997 L 166.99899999999997 270.00899999999996 C 156.98399999999998 269.441 146.98499999999996 268.77199999999993 136.99899999999997 268.01199999999994 z M 326.99899999999997 270.83699999999993 C 279.349 273.00999999999993 232.015 273.02699999999993 184.99899999999997 270.9149999999999 L 184.99899999999997 290.2289999999999 C 208.94899999999996 285.0639999999999 232.79899999999998 282.57699999999994 256.515 282.63899999999995 C 280.15299999999996 282.69899999999996 303.65999999999997 285.29299999999995 326.99899999999997 290.26499999999993 L 326.99899999999997 270.8349999999999 z M 68.05 288.62 L 41 315.67 L 41 372.56 L 64.06 372.56 C 64.436 344.573 65.94 316.585 68.05 288.62 z M 443.998 288.66700000000003 C 446.118 316.53900000000004 447.608 344.497 447.955 372.559 L 471 372.559 L 471 315.66900000000004 L 443.998 288.66600000000005 z M 256.47799999999995 300.617 C 232.79799999999994 300.55400000000003 208.99099999999996 303.194 184.99999999999994 308.66900000000004 L 184.99999999999994 340.559 L 200.99999999999994 340.559 L 200.99999999999994 359.002 C 218.03299999999996 364.348 232.72999999999993 367.495 246.99999999999994 368.428 L 246.99999999999994 365.558 L 264.99999999999994 365.558 L 264.99999999999994 368.426 C 279.2699999999999 367.49399999999997 293.9669999999999 364.346 310.99999999999994 359.001 L 310.99999999999994 340.56 L 326.99999999999994 340.56 L 326.99999999999994 308.694 C 303.5799999999999 303.427 280.09299999999996 300.678 256.477 300.61600000000004 z M 121 358.558 L 121 388.558 L 143 388.558 L 143 365.558 L 161 365.558 L 161 388.558 L 183 388.558 L 183 358.558 L 121 358.558 z M 329 358.558 L 329 388.558 L 351 388.558 L 351 365.558 L 369 365.558 L 369 388.558 L 391 388.558 L 391 358.558 L 329 358.558 z M 201 377.8 L 201 406.56 L 185 406.56 L 185 422.41700000000003 C 233.528 433.28200000000004 280.71299999999997 433.081 327 422.46200000000005 L 327 406.56 L 311 406.56 L 311 377.8 C 294.668 382.547 279.717 385.32 265 386.12600000000003 L 265 397.559 L 247 397.559 L 247 386.125 C 232.283 385.319 217.332 382.545 201 377.799 z M 41 390.56 L 41 404.56 L 64.14 404.56 C 64.05 399.89300000000003 63.997 395.226 63.977000000000004 390.56 L 41 390.56 z M 448.012 390.56 C 447.985 395.223 447.929 399.89 447.832 404.56 L 471 404.56 L 471 390.56 L 448.012 390.56 z M 137 406.56 L 137 426.358 C 143.137 433.572 148.222 436.128 151.934 436.202 C 155.668 436.277 160.631 434.08 167 426.412 L 167 406.56 L 161 406.56 L 161 413.56 L 143 413.56 L 143 406.56 L 137 406.56 z M 345 406.56 L 345 426.358 C 351.137 433.572 356.222 436.128 359.934 436.202 C 363.668 436.277 368.63100000000003 434.08 375 426.412 L 375 406.56 L 369 406.56 L 369 413.56 L 351 413.56 L 351 406.56 L 345 406.56 z M 41 422.56 L 41 457.714 C 46.596000000000004 463.224 49.677 465.964 52.846000000000004 467.02 C 55.300000000000004 467.83799999999997 60.559000000000005 468.16999999999996 67.891 468.337 C 66.34700000000001 453.087 65.305 437.827 64.68700000000001 422.55899999999997 L 41 422.55899999999997 z M 447.27 422.56 C 446.642 437.784 445.596 453.043 444.06 468.34000000000003 C 451.418 468.172 456.695 467.84000000000003 459.154 467.02000000000004 C 462.324 465.96400000000006 465.404 463.225 471 457.71400000000006 L 471 422.56 L 447.27 422.56 z M 185 440.842 L 185 490.34 C 232.55 491.84999999999997 279.877 491.786 327 490.26599999999996 L 327 440.9 C 280.68399999999997 450.92999999999995 233.26 451.085 185 440.84299999999996 z M 137 449.965 L 137 488.28299999999996 C 147.01 488.823 157.01 489.29099999999994 167 489.691 L 167 450.013 C 162.14 452.799 156.99 454.306 151.57 454.197 C 146.378 454.093 141.534 452.573 137 449.965 z M 345 449.965 L 345 489.61899999999997 C 355.01 489.21599999999995 365.01 488.741 375 488.207 L 375 450.013 C 370.14 452.799 364.99 454.306 359.57 454.197 C 354.378 454.093 349.534 452.573 345 449.965 z" stroke-linecap="round" />
</g>
<g transform="matrix(0.29 0 0 0.29 82.33 225.78)"  >
<path style="stroke: rgb(0,0,0); stroke-width: 0; stroke-dasharray: none; stroke-linecap: butt; stroke-dashoffset: 0; stroke-linejoin: miter; stroke-miterlimit: 4; fill: rgb(255,255,255); fill-rule: nonzero; opacity: 1;" vector-effect="non-scaling-stroke"  transform=" translate(-256, -256)" d="M 186.438 20.56 L 173.254 46.925 C 180.054 46.665 186.88 46.437 193.724 46.239 L 197.564 38.559 L 314.438 38.559 L 318.20799999999997 46.099 C 325.046 46.285999999999994 331.866 46.507 338.664 46.75899999999999 L 325.562 20.558999999999994 L 186.437 20.558999999999994 z M 255.998 63.30199999999999 C 210.24099999999999 63.35799999999999 164.546 64.868 120.618 67.66499999999999 C 117.378 118.24499999999999 112.21799999999999 168.652 119.832 213.489 C 209.129 225.88400000000001 299.93399999999997 226.474 392.596 213.435 C 399.651 182.447 397.713 128.755 391.556 67.54500000000002 C 347.582 64.65200000000002 301.82599999999996 63.24500000000002 255.998 63.301000000000016 z M 409.78099999999995 68.842 C 416.20099999999996 132.962 418.89399999999995 188.667 408.64599999999996 224.062 L 407.03599999999994 229.622 L 401.30999999999995 230.46400000000003 C 302.50999999999993 244.99200000000002 205.69699999999995 244.27400000000003 110.70499999999993 230.46600000000004 L 104.41999999999993 229.55200000000005 L 103.17399999999994 223.32200000000006 C 93.28399999999993 173.83200000000005 99.08899999999994 120.53700000000006 102.50999999999993 68.90200000000007 C 97.61999999999993 69.25600000000007 92.74499999999993 69.62200000000007 87.90799999999993 70.00900000000007 C 79.31199999999993 128.57700000000006 78.51799999999993 186.96600000000007 87.85799999999993 245.30100000000007 C 198.09799999999993 257.38900000000007 310.1329999999999 257.5060000000001 424.0609999999999 245.29100000000008 C 432.56299999999993 187.46100000000007 432.35099999999994 129.04100000000008 424.0439999999999 69.9780000000001 C 419.3189999999999 69.57800000000009 414.5589999999999 69.2020000000001 409.7819999999999 68.8380000000001 z M 255.966 92.3 C 288.492 92.27499999999999 321.033 95.04599999999999 353.54 100.69 L 361 101.985 L 361 109.557 C 361 125.111 362.683 144.662 348.31 159.80700000000002 C 338.398 170.251 322.655 177.144 297 180.39200000000002 L 297 198.55600000000004 L 215 198.55600000000004 L 215 180.10400000000004 C 191.008 176.73400000000004 175.648 169.92900000000003 165.637 159.91900000000004 C 150.807 145.093 151 125.56 151 109.56 L 151 101.96600000000001 L 158.484 100.688 C 190.928 95.148 223.43900000000002 92.32600000000001 255.964 92.302 z M 255.978 110.294 C 227.018 110.316 198.065 112.738 169.12 117.28999999999999 C 169.385 129.57 170.755 139.58599999999998 178.363 147.194 C 184.277 153.10799999999998 195.315 158.60999999999999 215 161.77599999999998 L 215 132.55599999999998 L 297 132.55599999999998 L 297 162.06599999999997 C 318.367 158.95099999999996 329.65999999999997 153.31099999999998 335.254 147.41599999999997 C 342.28700000000003 140.00599999999997 342.95000000000005 129.91399999999996 342.98400000000004 117.29199999999997 C 313.98400000000004 112.66199999999998 284.97800000000007 110.27199999999998 255.97700000000003 110.29399999999997 z M 233 150.56 L 233 180.56 L 279 180.56 L 279 150.56 L 233 150.56 z M 442.674 242.98000000000002 C 442.171 246.60500000000002 441.632 250.23000000000002 441.06399999999996 253.85000000000002 C 441.27799999999996 256.202 441.484 258.55600000000004 441.69399999999996 260.91 L 471 290.213 L 471 267.973 L 442.674 242.978 z M 69.18899999999996 243.10000000000002 L 41 267.973 L 41 290.213 L 70.318 260.89500000000004 C 70.523 258.56800000000004 70.724 256.24000000000007 70.934 253.91300000000004 C 70.316 250.30800000000005 69.732 246.70300000000003 69.189 243.10000000000005 z M 423.823 263.497 C 413.53299999999996 264.587 403.25899999999996 265.57300000000004 392.99899999999997 266.464 L 392.99899999999997 340.55899999999997 L 408.99899999999997 340.55899999999997 L 408.99899999999997 406.55899999999997 L 392.99899999999997 406.55899999999997 L 392.99899999999997 487.174 C 403.31699999999995 486.541 413.62899999999996 485.861 423.92699999999996 485.092 C 433.37199999999996 411.082 430.405 337.394 423.823 263.496 z M 88.24699999999996 263.527 C 81.725 338.09 78.58 412.1 88.06 485.1 C 98.384 485.89000000000004 108.69800000000001 486.60400000000004 119 487.245 L 119 406.56 L 103 406.56 L 103 340.56 L 119 340.56 L 119 266.536 C 108.734 265.634 98.483 264.633 88.248 263.526 z M 374.99899999999997 267.92699999999996 C 364.98499999999996 268.68699999999995 354.98499999999996 269.35099999999994 344.99899999999997 269.919 L 344.99899999999997 340.55899999999997 L 374.99899999999997 340.55899999999997 L 374.99899999999997 267.92699999999996 z M 136.99899999999997 268.01199999999994 L 136.99899999999997 340.55899999999997 L 166.99899999999997 340.55899999999997 L 166.99899999999997 270.00899999999996 C 156.98399999999998 269.441 146.98499999999996 268.77199999999993 136.99899999999997 268.01199999999994 z M 326.99899999999997 270.83699999999993 C 279.349 273.00999999999993 232.015 273.02699999999993 184.99899999999997 270.9149999999999 L 184.99899999999997 290.2289999999999 C 208.94899999999996 285.0639999999999 232.79899999999998 282.57699999999994 256.515 282.63899999999995 C 280.15299999999996 282.69899999999996 303.65999999999997 285.29299999999995 326.99899999999997 290.26499999999993 L 326.99899999999997 270.8349999999999 z M 68.05 288.62 L 41 315.67 L 41 372.56 L 64.06 372.56 C 64.436 344.573 65.94 316.585 68.05 288.62 z M 443.998 288.66700000000003 C 446.118 316.53900000000004 447.608 344.497 447.955 372.559 L 471 372.559 L 471 315.66900000000004 L 443.998 288.66600000000005 z M 256.47799999999995 300.617 C 232.79799999999994 300.55400000000003 208.99099999999996 303.194 184.99999999999994 308.66900000000004 L 184.99999999999994 340.559 L 200.99999999999994 340.559 L 200.99999999999994 359.002 C 218.03299999999996 364.348 232.72999999999993 367.495 246.99999999999994 368.428 L 246.99999999999994 365.558 L 264.99999999999994 365.558 L 264.99999999999994 368.426 C 279.2699999999999 367.49399999999997 293.9669999999999 364.346 310.99999999999994 359.001 L 310.99999999999994 340.56 L 326.99999999999994 340.56 L 326.99999999999994 308.694 C 303.5799999999999 303.427 280.09299999999996 300.678 256.477 300.61600000000004 z M 121 358.558 L 121 388.558 L 143 388.558 L 143 365.558 L 161 365.558 L 161 388.558 L 183 388.558 L 183 358.558 L 121 358.558 z M 329 358.558 L 329 388.558 L 351 388.558 L 351 365.558 L 369 365.558 L 369 388.558 L 391 388.558 L 391 358.558 L 329 358.558 z M 201 377.8 L 201 406.56 L 185 406.56 L 185 422.41700000000003 C 233.528 433.28200000000004 280.71299999999997 433.081 327 422.46200000000005 L 327 406.56 L 311 406.56 L 311 377.8 C 294.668 382.547 279.717 385.32 265 386.12600000000003 L 265 397.559 L 247 397.559 L 247 386.125 C 232.283 385.319 217.332 382.545 201 377.799 z M 41 390.56 L 41 404.56 L 64.14 404.56 C 64.05 399.89300000000003 63.997 395.226 63.977000000000004 390.56 L 41 390.56 z M 448.012 390.56 C 447.985 395.223 447.929 399.89 447.832 404.56 L 471 404.56 L 471 390.56 L 448.012 390.56 z M 137 406.56 L 137 426.358 C 143.137 433.572 148.222 436.128 151.934 436.202 C 155.668 436.277 160.631 434.08 167 426.412 L 167 406.56 L 161 406.56 L 161 413.56 L 143 413.56 L 143 406.56 L 137 406.56 z M 345 406.56 L 345 426.358 C 351.137 433.572 356.222 436.128 359.934 436.202 C 363.668 436.277 368.63100000000003 434.08 375 426.412 L 375 406.56 L 369 406.56 L 369 413.56 L 351 413.56 L 351 406.56 L 345 406.56 z M 41 422.56 L 41 457.714 C 46.596000000000004 463.224 49.677 465.964 52.846000000000004 467.02 C 55.300000000000004 467.83799999999997 60.559000000000005 468.16999999999996 67.891 468.337 C 66.34700000000001 453.087 65.305 437.827 64.68700000000001 422.55899999999997 L 41 422.55899999999997 z M 447.27 422.56 C 446.642 437.784 445.596 453.043 444.06 468.34000000000003 C 451.418 468.172 456.695 467.84000000000003 459.154 467.02000000000004 C 462.324 465.96400000000006 465.404 463.225 471 457.71400000000006 L 471 422.56 L 447.27 422.56 z M 185 440.842 L 185 490.34 C 232.55 491.84999999999997 279.877 491.786 327 490.26599999999996 L 327 440.9 C 280.68399999999997 450.92999999999995 233.26 451.085 185 440.84299999999996 z M 137 449.965 L 137 488.28299999999996 C 147.01 488.823 157.01 489.29099999999994 167 489.691 L 167 450.013 C 162.14 452.799 156.99 454.306 151.57 454.197 C 146.378 454.093 141.534 452.573 137 449.965 z M 345 449.965 L 345 489.61899999999997 C 355.01 489.21599999999995 365.01 488.741 375 488.207 L 375 450.013 C 370.14 452.799 364.99 454.306 359.57 454.197 C 354.378 454.093 349.534 452.573 345 449.965 z" stroke-linecap="round" />
</g>
<g transform="matrix(0.29 0 0 0.29 518 225.61)"  >
<path style="stroke: rgb(0,0,0); stroke-width: 0; stroke-dasharray: none; stroke-linecap: butt; stroke-dashoffset: 0; stroke-linejoin: miter; stroke-miterlimit: 4; fill: rgb(255,255,255); fill-rule: nonzero; opacity: 1;" vector-effect="non-scaling-stroke"  transform=" translate(-256, -256)" d="M 186.438 20.56 L 173.254 46.925 C 180.054 46.665 186.88 46.437 193.724 46.239 L 197.564 38.559 L 314.438 38.559 L 318.20799999999997 46.099 C 325.046 46.285999999999994 331.866 46.507 338.664 46.75899999999999 L 325.562 20.558999999999994 L 186.437 20.558999999999994 z M 255.998 63.30199999999999 C 210.24099999999999 63.35799999999999 164.546 64.868 120.618 67.66499999999999 C 117.378 118.24499999999999 112.21799999999999 168.652 119.832 213.489 C 209.129 225.88400000000001 299.93399999999997 226.474 392.596 213.435 C 399.651 182.447 397.713 128.755 391.556 67.54500000000002 C 347.582 64.65200000000002 301.82599999999996 63.24500000000002 255.998 63.301000000000016 z M 409.78099999999995 68.842 C 416.20099999999996 132.962 418.89399999999995 188.667 408.64599999999996 224.062 L 407.03599999999994 229.622 L 401.30999999999995 230.46400000000003 C 302.50999999999993 244.99200000000002 205.69699999999995 244.27400000000003 110.70499999999993 230.46600000000004 L 104.41999999999993 229.55200000000005 L 103.17399999999994 223.32200000000006 C 93.28399999999993 173.83200000000005 99.08899999999994 120.53700000000006 102.50999999999993 68.90200000000007 C 97.61999999999993 69.25600000000007 92.74499999999993 69.62200000000007 87.90799999999993 70.00900000000007 C 79.31199999999993 128.57700000000006 78.51799999999993 186.96600000000007 87.85799999999993 245.30100000000007 C 198.09799999999993 257.38900000000007 310.1329999999999 257.5060000000001 424.0609999999999 245.29100000000008 C 432.56299999999993 187.46100000000007 432.35099999999994 129.04100000000008 424.0439999999999 69.9780000000001 C 419.3189999999999 69.57800000000009 414.5589999999999 69.2020000000001 409.7819999999999 68.8380000000001 z M 255.966 92.3 C 288.492 92.27499999999999 321.033 95.04599999999999 353.54 100.69 L 361 101.985 L 361 109.557 C 361 125.111 362.683 144.662 348.31 159.80700000000002 C 338.398 170.251 322.655 177.144 297 180.39200000000002 L 297 198.55600000000004 L 215 198.55600000000004 L 215 180.10400000000004 C 191.008 176.73400000000004 175.648 169.92900000000003 165.637 159.91900000000004 C 150.807 145.093 151 125.56 151 109.56 L 151 101.96600000000001 L 158.484 100.688 C 190.928 95.148 223.43900000000002 92.32600000000001 255.964 92.302 z M 255.978 110.294 C 227.018 110.316 198.065 112.738 169.12 117.28999999999999 C 169.385 129.57 170.755 139.58599999999998 178.363 147.194 C 184.277 153.10799999999998 195.315 158.60999999999999 215 161.77599999999998 L 215 132.55599999999998 L 297 132.55599999999998 L 297 162.06599999999997 C 318.367 158.95099999999996 329.65999999999997 153.31099999999998 335.254 147.41599999999997 C 342.28700000000003 140.00599999999997 342.95000000000005 129.91399999999996 342.98400000000004 117.29199999999997 C 313.98400000000004 112.66199999999998 284.97800000000007 110.27199999999998 255.97700000000003 110.29399999999997 z M 233 150.56 L 233 180.56 L 279 180.56 L 279 150.56 L 233 150.56 z M 442.674 242.98000000000002 C 442.171 246.60500000000002 441.632 250.23000000000002 441.06399999999996 253.85000000000002 C 441.27799999999996 256.202 441.484 258.55600000000004 441.69399999999996 260.91 L 471 290.213 L 471 267.973 L 442.674 242.978 z M 69.18899999999996 243.10000000000002 L 41 267.973 L 41 290.213 L 70.318 260.89500000000004 C 70.523 258.56800000000004 70.724 256.24000000000007 70.934 253.91300000000004 C 70.316 250.30800000000005 69.732 246.70300000000003 69.189 243.10000000000005 z M 423.823 263.497 C 413.53299999999996 264.587 403.25899999999996 265.57300000000004 392.99899999999997 266.464 L 392.99899999999997 340.55899999999997 L 408.99899999999997 340.55899999999997 L 408.99899999999997 406.55899999999997 L 392.99899999999997 406.55899999999997 L 392.99899999999997 487.174 C 403.31699999999995 486.541 413.62899999999996 485.861 423.92699999999996 485.092 C 433.37199999999996 411.082 430.405 337.394 423.823 263.496 z M 88.24699999999996 263.527 C 81.725 338.09 78.58 412.1 88.06 485.1 C 98.384 485.89000000000004 108.69800000000001 486.60400000000004 119 487.245 L 119 406.56 L 103 406.56 L 103 340.56 L 119 340.56 L 119 266.536 C 108.734 265.634 98.483 264.633 88.248 263.526 z M 374.99899999999997 267.92699999999996 C 364.98499999999996 268.68699999999995 354.98499999999996 269.35099999999994 344.99899999999997 269.919 L 344.99899999999997 340.55899999999997 L 374.99899999999997 340.55899999999997 L 374.99899999999997 267.92699999999996 z M 136.99899999999997 268.01199999999994 L 136.99899999999997 340.55899999999997 L 166.99899999999997 340.55899999999997 L 166.99899999999997 270.00899999999996 C 156.98399999999998 269.441 146.98499999999996 268.77199999999993 136.99899999999997 268.01199999999994 z M 326.99899999999997 270.83699999999993 C 279.349 273.00999999999993 232.015 273.02699999999993 184.99899999999997 270.9149999999999 L 184.99899999999997 290.2289999999999 C 208.94899999999996 285.0639999999999 232.79899999999998 282.57699999999994 256.515 282.63899999999995 C 280.15299999999996 282.69899999999996 303.65999999999997 285.29299999999995 326.99899999999997 290.26499999999993 L 326.99899999999997 270.8349999999999 z M 68.05 288.62 L 41 315.67 L 41 372.56 L 64.06 372.56 C 64.436 344.573 65.94 316.585 68.05 288.62 z M 443.998 288.66700000000003 C 446.118 316.53900000000004 447.608 344.497 447.955 372.559 L 471 372.559 L 471 315.66900000000004 L 443.998 288.66600000000005 z M 256.47799999999995 300.617 C 232.79799999999994 300.55400000000003 208.99099999999996 303.194 184.99999999999994 308.66900000000004 L 184.99999999999994 340.559 L 200.99999999999994 340.559 L 200.99999999999994 359.002 C 218.03299999999996 364.348 232.72999999999993 367.495 246.99999999999994 368.428 L 246.99999999999994 365.558 L 264.99999999999994 365.558 L 264.99999999999994 368.426 C 279.2699999999999 367.49399999999997 293.9669999999999 364.346 310.99999999999994 359.001 L 310.99999999999994 340.56 L 326.99999999999994 340.56 L 326.99999999999994 308.694 C 303.5799999999999 303.427 280.09299999999996 300.678 256.477 300.61600000000004 z M 121 358.558 L 121 388.558 L 143 388.558 L 143 365.558 L 161 365.558 L 161 388.558 L 183 388.558 L 183 358.558 L 121 358.558 z M 329 358.558 L 329 388.558 L 351 388.558 L 351 365.558 L 369 365.558 L 369 388.558 L 391 388.558 L 391 358.558 L 329 358.558 z M 201 377.8 L 201 406.56 L 185 406.56 L 185 422.41700000000003 C 233.528 433.28200000000004 280.71299999999997 433.081 327 422.46200000000005 L 327 406.56 L 311 406.56 L 311 377.8 C 294.668 382.547 279.717 385.32 265 386.12600000000003 L 265 397.559 L 247 397.559 L 247 386.125 C 232.283 385.319 217.332 382.545 201 377.799 z M 41 390.56 L 41 404.56 L 64.14 404.56 C 64.05 399.89300000000003 63.997 395.226 63.977000000000004 390.56 L 41 390.56 z M 448.012 390.56 C 447.985 395.223 447.929 399.89 447.832 404.56 L 471 404.56 L 471 390.56 L 448.012 390.56 z M 137 406.56 L 137 426.358 C 143.137 433.572 148.222 436.128 151.934 436.202 C 155.668 436.277 160.631 434.08 167 426.412 L 167 406.56 L 161 406.56 L 161 413.56 L 143 413.56 L 143 406.56 L 137 406.56 z M 345 406.56 L 345 426.358 C 351.137 433.572 356.222 436.128 359.934 436.202 C 363.668 436.277 368.63100000000003 434.08 375 426.412 L 375 406.56 L 369 406.56 L 369 413.56 L 351 413.56 L 351 406.56 L 345 406.56 z M 41 422.56 L 41 457.714 C 46.596000000000004 463.224 49.677 465.964 52.846000000000004 467.02 C 55.300000000000004 467.83799999999997 60.559000000000005 468.16999999999996 67.891 468.337 C 66.34700000000001 453.087 65.305 437.827 64.68700000000001 422.55899999999997 L 41 422.55899999999997 z M 447.27 422.56 C 446.642 437.784 445.596 453.043 444.06 468.34000000000003 C 451.418 468.172 456.695 467.84000000000003 459.154 467.02000000000004 C 462.324 465.96400000000006 465.404 463.225 471 457.71400000000006 L 471 422.56 L 447.27 422.56 z M 185 440.842 L 185 490.34 C 232.55 491.84999999999997 279.877 491.786 327 490.26599999999996 L 327 440.9 C 280.68399999999997 450.92999999999995 233.26 451.085 185 440.84299999999996 z M 137 449.965 L 137 488.28299999999996 C 147.01 488.823 157.01 489.29099999999994 167 489.691 L 167 450.013 C 162.14 452.799 156.99 454.306 151.57 454.197 C 146.378 454.093 141.534 452.573 137 449.965 z M 345 449.965 L 345 489.61899999999997 C 355.01 489.21599999999995 365.01 488.741 375 488.207 L 375 450.013 C 370.14 452.799 364.99 454.306 359.57 454.197 C 354.378 454.093 349.534 452.573 345 449.965 z" stroke-linecap="round" />
</g>
</svg>