<?xml version="1.0" encoding="UTF-8" standalone="no" ?>
<!DOCTYPE svg PUBLIC "-//W3C//DTD SVG 1.1//EN" "http://www.w3.org/Graphics/SVG/1.1/DTD/svg11.dtd">
<svg xmlns="http://www.w3.org/2000/svg" xmlns:xlink="http://www.w3.org/1999/xlink" version="1.1" width="600" height="200" viewBox="0 0 600 200" xml:space="preserve">
<desc>Created with Fabric.js 5.2.4</desc>
<defs>
</defs>
<g transform="matrix(1 0 0 1 300 100)" id="e0582a05-c534-4f8e-b386-db693aa98d52"  >
<rect style="stroke: none; stroke-width: 1; stroke-dasharray: none; stroke-linecap: butt; stroke-dashoffset: 0; stroke-linejoin: miter; stroke-miterlimit: 4; fill: rgb(255,255,255); fill-rule: nonzero; opacity: 1; visibility: hidden;" vector-effect="non-scaling-stroke"  x="-300" y="-100" rx="0" ry="0" width="600" height="200" />
</g>
<g transform="matrix(Infinity NaN NaN Infinity 0 0)" id="134ff0b4-30e9-4997-9a1a-93308bf987d3"  >
</g>
<g transform="matrix(0.19 0 0 0.19 300 100)" id="474a136b-f7e7-45f7-8a6f-7cc937b0ab45"  >
<path style="stroke: rgb(0,0,0); stroke-width: 0; stroke-dasharray: none; stroke-linecap: butt; stroke-dashoffset: 0; stroke-linejoin: miter; stroke-miterlimit: 4; fill: rgb(255,255,255); fill-rule: nonzero; opacity: 1;" vector-effect="non-scaling-stroke"  transform=" translate(-255.02, -268.44)" d="M 106 113.773 L 73.037 188.148 C 71.979 188.371 70.93400000000001 188.603 69.917 188.852 C 64.624 190.148 59.967 191.77 55.873000000000005 193.642 L 47.607000000000006 140.207 L 22.570000000000007 227.48399999999998 C 21.274000000000008 231.207 20.146000000000008 235.09099999999998 19.232000000000006 239.11899999999997 L 18.972000000000005 240.02399999999997 L 19.042000000000005 239.98399999999998 C 15.410000000000005 256.649 15.482000000000005 275.71 22.639000000000006 295.80199999999996 C 25.945000000000007 309.82399999999996 38.15400000000001 326.157 62.879000000000005 343.93699999999995 C 92.072 364.929 137.929 386.89099999999996 201.37400000000002 407.79699999999997 C 201.12100000000004 406.00199999999995 200.98100000000002 404.17199999999997 200.98100000000002 402.311 C 200.98100000000002 390.101 206.61800000000002 379.126 215.413 371.864 L 211.34300000000002 329.13399999999996 L 179.80300000000003 366.82399999999996 C 170.03900000000002 363.138 160.75600000000003 359.364 151.90700000000004 355.52399999999994 L 148.95700000000005 277.3469999999999 L 115.38700000000006 337.96199999999993 C 106.31900000000006 333.1119999999999 97.89100000000006 328.1889999999999 90.09300000000006 323.21199999999993 L 85.46600000000007 233.1719999999999 L 56.53400000000006 298.2289999999999 C 49.04900000000006 291.6219999999999 42.57700000000006 284.98599999999993 37.08400000000006 278.3689999999999 C 32.84000000000006 258.3529999999999 36.67200000000006 240.30599999999993 43.229000000000056 225.9489999999999 L 47.71200000000005 223.3469999999999 C 63.56400000000005 217.85099999999989 83.22600000000006 215.70199999999988 106.21600000000005 217.1649999999999 C 138.94800000000004 219.2489999999999 178.72600000000006 228.9129999999999 224.36800000000005 247.9679999999999 C 224.46600000000007 234.8759999999999 232.07200000000006 223.4579999999999 243.06000000000006 217.8259999999999 L 237.46300000000005 165.2359999999999 L 207.32300000000004 208.0159999999999 C 197.64300000000003 204.4159999999999 188.29800000000003 201.28599999999992 179.31100000000004 198.6059999999999 L 175.05100000000004 129.87599999999992 L 142.48400000000004 189.64999999999992 C 130.70000000000005 187.4869999999999 119.77200000000003 186.2139999999999 109.76800000000003 185.73999999999992 L 105.99800000000003 113.76999999999992 z M 429.08 143.709 L 413.10699999999997 213.989 C 403.179 212.745 392.22299999999996 212.113 380.27 212.21200000000002 L 360.69 145.769 L 342.615 214.733 C 333.273 215.853 323.488 217.368 313.29900000000004 219.28300000000002 L 294.28400000000005 174.443 L 277.862 220.185 C 286.762 226.368 292.63 236.655 292.63 248.225 C 292.63 250.632 292.373 252.983 291.89 255.255 C 339.114 244.685 379.16999999999996 242.089 411.26 245.555 C 434.15999999999997 248.025 453.168 253.493 467.852 261.605 L 471.83 264.937 C 475.846 280.202 476.55 298.641 468.957 317.644 C 462.417 323.226 454.90999999999997 328.66 446.40999999999997 333.894 L 428.97999999999996 264.86 L 409.09 352.8 C 400.58 356.365 391.464 359.772 381.734 362.998 L 362.01 301.42199999999997 L 342.736 374.096 C 333.389 376.366 323.629 378.5 313.40999999999997 380.466 L 290.80499999999995 335.036 L 275.93499999999995 385.031 C 278.50499999999994 390.261 279.9549999999999 396.128 279.9549999999999 402.314 C 279.9549999999999 408.04200000000003 278.7049999999999 413.494 276.4789999999999 418.42100000000005 C 346.8949999999999 408.571 398.6549999999999 394.24100000000004 432.37199999999996 377.85600000000005 C 459.76599999999996 364.54600000000005 474.57699999999994 350.53000000000003 480.22399999999993 337.27400000000006 C 490.6959999999999 318.6940000000001 494.01399999999995 299.92600000000004 493.27199999999993 282.8860000000001 L 493.3349999999999 282.9390000000001 L 493.23299999999995 281.99700000000007 C 493.01899999999995 277.8710000000001 492.56899999999996 273.85100000000006 491.92499999999995 269.96200000000005 L 482.11499999999995 179.70200000000006 L 464.87199999999996 230.94700000000006 C 461.15799999999996 228.40700000000007 456.842 226.01700000000005 451.84899999999993 223.83700000000005 C 450.88899999999995 223.42000000000004 449.89899999999994 223.01500000000004 448.8949999999999 222.61500000000004 L 429.08 143.71 z M 258.496 232.779 C 249.85399999999998 232.779 243.05299999999997 239.581 243.05299999999997 248.224 C 243.05299999999997 251.754 244.20299999999997 254.964 246.13699999999997 257.542 C 249.55699999999996 257.56699999999995 253.05199999999996 257.70599999999996 256.60499999999996 257.964 C 260.91799999999995 258.277 265.13199999999995 258.76 269.23799999999994 259.386 C 272.14799999999997 256.593 273.9429999999999 252.65300000000002 273.9429999999999 248.22400000000002 C 273.9429999999999 239.584 267.13699999999994 232.77800000000002 258.4959999999999 232.77800000000002 z M 245.844 276.247 C 244.82399999999998 276.244 243.81199999999998 276.252 242.811 276.272 C 230.79500000000002 276.516 220.221 278.406 212.58100000000002 281.252 C 207.48700000000002 283.152 203.76100000000002 285.482 201.73100000000002 287.47200000000004 C 199.70100000000002 289.46200000000005 199.35600000000002 290.627 199.35600000000002 291.84200000000004 C 199.35600000000002 294.26800000000003 203.16600000000003 300.27900000000005 213.61400000000003 305.68600000000004 C 224.06200000000004 311.09400000000005 239.51900000000003 315.40000000000003 256.60600000000005 316.64000000000004 C 273.6940000000001 317.88000000000005 289.09200000000004 315.78600000000006 299.28000000000003 311.99000000000007 C 304.37300000000005 310.09200000000004 308.1 307.76000000000005 310.13000000000005 305.77000000000004 C 312.16 303.783 312.5040000000001 302.61600000000004 312.5040000000001 301.40200000000004 C 312.5040000000001 298.97200000000004 308.6940000000001 292.96200000000005 298.2460000000001 287.55500000000006 C 287.7990000000001 282.14700000000005 272.3420000000001 277.8430000000001 255.2540000000001 276.6050000000001 C 252.0500000000001 276.3710000000001 248.9060000000001 276.25700000000006 245.8440000000001 276.24800000000005 z M 240.156 333.462 L 237.196 362.972 C 238.276 362.882 239.36599999999999 362.822 240.469 362.822 C 245.851 362.822 250.993 363.922 255.683 365.899 L 258.733 335.493 C 257.58 335.433 256.42 335.363 255.25300000000001 335.278 C 250.073 334.90200000000004 245.03 334.286 240.155 333.461 z M 240.469 381.512 C 228.869 381.512 219.671 390.712 219.671 402.312 C 219.671 413.90700000000004 228.87099999999998 423.108 240.468 423.108 C 252.06199999999998 423.108 261.26599999999996 413.90500000000003 261.26599999999996 402.31 C 261.26599999999996 390.715 252.06399999999996 381.512 240.46599999999995 381.512 z" stroke-linecap="round" />
</g>
<g transform="matrix(0.19 0 0 0.19 502.06 100)"  >
<path style="stroke: rgb(0,0,0); stroke-width: 0; stroke-dasharray: none; stroke-linecap: butt; stroke-dashoffset: 0; stroke-linejoin: miter; stroke-miterlimit: 4; fill: rgb(255,255,255); fill-rule: nonzero; opacity: 1;" vector-effect="non-scaling-stroke"  transform=" translate(-255.02, -268.44)" d="M 106 113.773 L 73.037 188.148 C 71.979 188.371 70.93400000000001 188.603 69.917 188.852 C 64.624 190.148 59.967 191.77 55.873000000000005 193.642 L 47.607000000000006 140.207 L 22.570000000000007 227.48399999999998 C 21.274000000000008 231.207 20.146000000000008 235.09099999999998 19.232000000000006 239.11899999999997 L 18.972000000000005 240.02399999999997 L 19.042000000000005 239.98399999999998 C 15.410000000000005 256.649 15.482000000000005 275.71 22.639000000000006 295.80199999999996 C 25.945000000000007 309.82399999999996 38.15400000000001 326.157 62.879000000000005 343.93699999999995 C 92.072 364.929 137.929 386.89099999999996 201.37400000000002 407.79699999999997 C 201.12100000000004 406.00199999999995 200.98100000000002 404.17199999999997 200.98100000000002 402.311 C 200.98100000000002 390.101 206.61800000000002 379.126 215.413 371.864 L 211.34300000000002 329.13399999999996 L 179.80300000000003 366.82399999999996 C 170.03900000000002 363.138 160.75600000000003 359.364 151.90700000000004 355.52399999999994 L 148.95700000000005 277.3469999999999 L 115.38700000000006 337.96199999999993 C 106.31900000000006 333.1119999999999 97.89100000000006 328.1889999999999 90.09300000000006 323.21199999999993 L 85.46600000000007 233.1719999999999 L 56.53400000000006 298.2289999999999 C 49.04900000000006 291.6219999999999 42.57700000000006 284.98599999999993 37.08400000000006 278.3689999999999 C 32.84000000000006 258.3529999999999 36.67200000000006 240.30599999999993 43.229000000000056 225.9489999999999 L 47.71200000000005 223.3469999999999 C 63.56400000000005 217.85099999999989 83.22600000000006 215.70199999999988 106.21600000000005 217.1649999999999 C 138.94800000000004 219.2489999999999 178.72600000000006 228.9129999999999 224.36800000000005 247.9679999999999 C 224.46600000000007 234.8759999999999 232.07200000000006 223.4579999999999 243.06000000000006 217.8259999999999 L 237.46300000000005 165.2359999999999 L 207.32300000000004 208.0159999999999 C 197.64300000000003 204.4159999999999 188.29800000000003 201.28599999999992 179.31100000000004 198.6059999999999 L 175.05100000000004 129.87599999999992 L 142.48400000000004 189.64999999999992 C 130.70000000000005 187.4869999999999 119.77200000000003 186.2139999999999 109.76800000000003 185.73999999999992 L 105.99800000000003 113.76999999999992 z M 429.08 143.709 L 413.10699999999997 213.989 C 403.179 212.745 392.22299999999996 212.113 380.27 212.21200000000002 L 360.69 145.769 L 342.615 214.733 C 333.273 215.853 323.488 217.368 313.29900000000004 219.28300000000002 L 294.28400000000005 174.443 L 277.862 220.185 C 286.762 226.368 292.63 236.655 292.63 248.225 C 292.63 250.632 292.373 252.983 291.89 255.255 C 339.114 244.685 379.16999999999996 242.089 411.26 245.555 C 434.15999999999997 248.025 453.168 253.493 467.852 261.605 L 471.83 264.937 C 475.846 280.202 476.55 298.641 468.957 317.644 C 462.417 323.226 454.90999999999997 328.66 446.40999999999997 333.894 L 428.97999999999996 264.86 L 409.09 352.8 C 400.58 356.365 391.464 359.772 381.734 362.998 L 362.01 301.42199999999997 L 342.736 374.096 C 333.389 376.366 323.629 378.5 313.40999999999997 380.466 L 290.80499999999995 335.036 L 275.93499999999995 385.031 C 278.50499999999994 390.261 279.9549999999999 396.128 279.9549999999999 402.314 C 279.9549999999999 408.04200000000003 278.7049999999999 413.494 276.4789999999999 418.42100000000005 C 346.8949999999999 408.571 398.6549999999999 394.24100000000004 432.37199999999996 377.85600000000005 C 459.76599999999996 364.54600000000005 474.57699999999994 350.53000000000003 480.22399999999993 337.27400000000006 C 490.6959999999999 318.6940000000001 494.01399999999995 299.92600000000004 493.27199999999993 282.8860000000001 L 493.3349999999999 282.9390000000001 L 493.23299999999995 281.99700000000007 C 493.01899999999995 277.8710000000001 492.56899999999996 273.85100000000006 491.92499999999995 269.96200000000005 L 482.11499999999995 179.70200000000006 L 464.87199999999996 230.94700000000006 C 461.15799999999996 228.40700000000007 456.842 226.01700000000005 451.84899999999993 223.83700000000005 C 450.88899999999995 223.42000000000004 449.89899999999994 223.01500000000004 448.8949999999999 222.61500000000004 L 429.08 143.71 z M 258.496 232.779 C 249.85399999999998 232.779 243.05299999999997 239.581 243.05299999999997 248.224 C 243.05299999999997 251.754 244.20299999999997 254.964 246.13699999999997 257.542 C 249.55699999999996 257.56699999999995 253.05199999999996 257.70599999999996 256.60499999999996 257.964 C 260.91799999999995 258.277 265.13199999999995 258.76 269.23799999999994 259.386 C 272.14799999999997 256.593 273.9429999999999 252.65300000000002 273.9429999999999 248.22400000000002 C 273.9429999999999 239.584 267.13699999999994 232.77800000000002 258.4959999999999 232.77800000000002 z M 245.844 276.247 C 244.82399999999998 276.244 243.81199999999998 276.252 242.811 276.272 C 230.79500000000002 276.516 220.221 278.406 212.58100000000002 281.252 C 207.48700000000002 283.152 203.76100000000002 285.482 201.73100000000002 287.47200000000004 C 199.70100000000002 289.46200000000005 199.35600000000002 290.627 199.35600000000002 291.84200000000004 C 199.35600000000002 294.26800000000003 203.16600000000003 300.27900000000005 213.61400000000003 305.68600000000004 C 224.06200000000004 311.09400000000005 239.51900000000003 315.40000000000003 256.60600000000005 316.64000000000004 C 273.6940000000001 317.88000000000005 289.09200000000004 315.78600000000006 299.28000000000003 311.99000000000007 C 304.37300000000005 310.09200000000004 308.1 307.76000000000005 310.13000000000005 305.77000000000004 C 312.16 303.783 312.5040000000001 302.61600000000004 312.5040000000001 301.40200000000004 C 312.5040000000001 298.97200000000004 308.6940000000001 292.96200000000005 298.2460000000001 287.55500000000006 C 287.7990000000001 282.14700000000005 272.3420000000001 277.8430000000001 255.2540000000001 276.6050000000001 C 252.0500000000001 276.3710000000001 248.9060000000001 276.25700000000006 245.8440000000001 276.24800000000005 z M 240.156 333.462 L 237.196 362.972 C 238.276 362.882 239.36599999999999 362.822 240.469 362.822 C 245.851 362.822 250.993 363.922 255.683 365.899 L 258.733 335.493 C 257.58 335.433 256.42 335.363 255.25300000000001 335.278 C 250.073 334.90200000000004 245.03 334.286 240.155 333.461 z M 240.469 381.512 C 228.869 381.512 219.671 390.712 219.671 402.312 C 219.671 413.90700000000004 228.87099999999998 423.108 240.468 423.108 C 252.06199999999998 423.108 261.26599999999996 413.90500000000003 261.26599999999996 402.31 C 261.26599999999996 390.715 252.06399999999996 381.512 240.46599999999995 381.512 z" stroke-linecap="round" />
</g>
<g transform="matrix(0.19 0 0 0.19 98.72 100)"  >
<path style="stroke: rgb(0,0,0); stroke-width: 0; stroke-dasharray: none; stroke-linecap: butt; stroke-dashoffset: 0; stroke-linejoin: miter; stroke-miterlimit: 4; fill: rgb(255,255,255); fill-rule: nonzero; opacity: 1;" vector-effect="non-scaling-stroke"  transform=" translate(-255.02, -268.44)" d="M 106 113.773 L 73.037 188.148 C 71.979 188.371 70.93400000000001 188.603 69.917 188.852 C 64.624 190.148 59.967 191.77 55.873000000000005 193.642 L 47.607000000000006 140.207 L 22.570000000000007 227.48399999999998 C 21.274000000000008 231.207 20.146000000000008 235.09099999999998 19.232000000000006 239.11899999999997 L 18.972000000000005 240.02399999999997 L 19.042000000000005 239.98399999999998 C 15.410000000000005 256.649 15.482000000000005 275.71 22.639000000000006 295.80199999999996 C 25.945000000000007 309.82399999999996 38.15400000000001 326.157 62.879000000000005 343.93699999999995 C 92.072 364.929 137.929 386.89099999999996 201.37400000000002 407.79699999999997 C 201.12100000000004 406.00199999999995 200.98100000000002 404.17199999999997 200.98100000000002 402.311 C 200.98100000000002 390.101 206.61800000000002 379.126 215.413 371.864 L 211.34300000000002 329.13399999999996 L 179.80300000000003 366.82399999999996 C 170.03900000000002 363.138 160.75600000000003 359.364 151.90700000000004 355.52399999999994 L 148.95700000000005 277.3469999999999 L 115.38700000000006 337.96199999999993 C 106.31900000000006 333.1119999999999 97.89100000000006 328.1889999999999 90.09300000000006 323.21199999999993 L 85.46600000000007 233.1719999999999 L 56.53400000000006 298.2289999999999 C 49.04900000000006 291.6219999999999 42.57700000000006 284.98599999999993 37.08400000000006 278.3689999999999 C 32.84000000000006 258.3529999999999 36.67200000000006 240.30599999999993 43.229000000000056 225.9489999999999 L 47.71200000000005 223.3469999999999 C 63.56400000000005 217.85099999999989 83.22600000000006 215.70199999999988 106.21600000000005 217.1649999999999 C 138.94800000000004 219.2489999999999 178.72600000000006 228.9129999999999 224.36800000000005 247.9679999999999 C 224.46600000000007 234.8759999999999 232.07200000000006 223.4579999999999 243.06000000000006 217.8259999999999 L 237.46300000000005 165.2359999999999 L 207.32300000000004 208.0159999999999 C 197.64300000000003 204.4159999999999 188.29800000000003 201.28599999999992 179.31100000000004 198.6059999999999 L 175.05100000000004 129.87599999999992 L 142.48400000000004 189.64999999999992 C 130.70000000000005 187.4869999999999 119.77200000000003 186.2139999999999 109.76800000000003 185.73999999999992 L 105.99800000000003 113.76999999999992 z M 429.08 143.709 L 413.10699999999997 213.989 C 403.179 212.745 392.22299999999996 212.113 380.27 212.21200000000002 L 360.69 145.769 L 342.615 214.733 C 333.273 215.853 323.488 217.368 313.29900000000004 219.28300000000002 L 294.28400000000005 174.443 L 277.862 220.185 C 286.762 226.368 292.63 236.655 292.63 248.225 C 292.63 250.632 292.373 252.983 291.89 255.255 C 339.114 244.685 379.16999999999996 242.089 411.26 245.555 C 434.15999999999997 248.025 453.168 253.493 467.852 261.605 L 471.83 264.937 C 475.846 280.202 476.55 298.641 468.957 317.644 C 462.417 323.226 454.90999999999997 328.66 446.40999999999997 333.894 L 428.97999999999996 264.86 L 409.09 352.8 C 400.58 356.365 391.464 359.772 381.734 362.998 L 362.01 301.42199999999997 L 342.736 374.096 C 333.389 376.366 323.629 378.5 313.40999999999997 380.466 L 290.80499999999995 335.036 L 275.93499999999995 385.031 C 278.50499999999994 390.261 279.9549999999999 396.128 279.9549999999999 402.314 C 279.9549999999999 408.04200000000003 278.7049999999999 413.494 276.4789999999999 418.42100000000005 C 346.8949999999999 408.571 398.6549999999999 394.24100000000004 432.37199999999996 377.85600000000005 C 459.76599999999996 364.54600000000005 474.57699999999994 350.53000000000003 480.22399999999993 337.27400000000006 C 490.6959999999999 318.6940000000001 494.01399999999995 299.92600000000004 493.27199999999993 282.8860000000001 L 493.3349999999999 282.9390000000001 L 493.23299999999995 281.99700000000007 C 493.01899999999995 277.8710000000001 492.56899999999996 273.85100000000006 491.92499999999995 269.96200000000005 L 482.11499999999995 179.70200000000006 L 464.87199999999996 230.94700000000006 C 461.15799999999996 228.40700000000007 456.842 226.01700000000005 451.84899999999993 223.83700000000005 C 450.88899999999995 223.42000000000004 449.89899999999994 223.01500000000004 448.8949999999999 222.61500000000004 L 429.08 143.71 z M 258.496 232.779 C 249.85399999999998 232.779 243.05299999999997 239.581 243.05299999999997 248.224 C 243.05299999999997 251.754 244.20299999999997 254.964 246.13699999999997 257.542 C 249.55699999999996 257.56699999999995 253.05199999999996 257.70599999999996 256.60499999999996 257.964 C 260.91799999999995 258.277 265.13199999999995 258.76 269.23799999999994 259.386 C 272.14799999999997 256.593 273.9429999999999 252.65300000000002 273.9429999999999 248.22400000000002 C 273.9429999999999 239.584 267.13699999999994 232.77800000000002 258.4959999999999 232.77800000000002 z M 245.844 276.247 C 244.82399999999998 276.244 243.81199999999998 276.252 242.811 276.272 C 230.79500000000002 276.516 220.221 278.406 212.58100000000002 281.252 C 207.48700000000002 283.152 203.76100000000002 285.482 201.73100000000002 287.47200000000004 C 199.70100000000002 289.46200000000005 199.35600000000002 290.627 199.35600000000002 291.84200000000004 C 199.35600000000002 294.26800000000003 203.16600000000003 300.27900000000005 213.61400000000003 305.68600000000004 C 224.06200000000004 311.09400000000005 239.51900000000003 315.40000000000003 256.60600000000005 316.64000000000004 C 273.6940000000001 317.88000000000005 289.09200000000004 315.78600000000006 299.28000000000003 311.99000000000007 C 304.37300000000005 310.09200000000004 308.1 307.76000000000005 310.13000000000005 305.77000000000004 C 312.16 303.783 312.5040000000001 302.61600000000004 312.5040000000001 301.40200000000004 C 312.5040000000001 298.97200000000004 308.6940000000001 292.96200000000005 298.2460000000001 287.55500000000006 C 287.7990000000001 282.14700000000005 272.3420000000001 277.8430000000001 255.2540000000001 276.6050000000001 C 252.0500000000001 276.3710000000001 248.9060000000001 276.25700000000006 245.8440000000001 276.24800000000005 z M 240.156 333.462 L 237.196 362.972 C 238.276 362.882 239.36599999999999 362.822 240.469 362.822 C 245.851 362.822 250.993 363.922 255.683 365.899 L 258.733 335.493 C 257.58 335.433 256.42 335.363 255.25300000000001 335.278 C 250.073 334.90200000000004 245.03 334.286 240.155 333.461 z M 240.469 381.512 C 228.869 381.512 219.671 390.712 219.671 402.312 C 219.671 413.90700000000004 228.87099999999998 423.108 240.468 423.108 C 252.06199999999998 423.108 261.26599999999996 413.90500000000003 261.26599999999996 402.31 C 261.26599999999996 390.715 252.06399999999996 381.512 240.46599999999995 381.512 z" stroke-linecap="round" />
</g>
</svg>