<?xml version="1.0" encoding="UTF-8" standalone="no" ?>
<!DOCTYPE svg PUBLIC "-//W3C//DTD SVG 1.1//EN" "http://www.w3.org/Graphics/SVG/1.1/DTD/svg11.dtd">
<svg xmlns="http://www.w3.org/2000/svg" xmlns:xlink="http://www.w3.org/1999/xlink" version="1.1" width="600" height="300" viewBox="0 0 600 300" xml:space="preserve">
<desc>Created with Fabric.js 5.2.4</desc>
<defs>
</defs>
<g transform="matrix(1 0 0 1 300 150)" id="5f0f8971-c191-47aa-97c0-0e0c21dd3e20"  >
<rect style="stroke: none; stroke-width: 1; stroke-dasharray: none; stroke-linecap: butt; stroke-dashoffset: 0; stroke-linejoin: miter; stroke-miterlimit: 4; fill: rgb(255,255,255); fill-rule: nonzero; opacity: 1; visibility: hidden;" vector-effect="non-scaling-stroke"  x="-300" y="-150" rx="0" ry="0" width="600" height="300" />
</g>
<g transform="matrix(Infinity NaN NaN Infinity 0 0)" id="9afc5f10-6061-4ddb-985f-c355a7bfd16c"  >
</g>
<g transform="matrix(0.2 0 0 0.2 225.4 229.39)" id="3cc4e1cb-eb1f-4d54-8d48-239fce3f6367"  >
<path style="stroke: rgb(0,0,0); stroke-width: 0; stroke-dasharray: none; stroke-linecap: butt; stroke-dashoffset: 0; stroke-linejoin: miter; stroke-miterlimit: 4; fill: rgb(255,255,255); fill-rule: nonzero; opacity: 1;" vector-effect="non-scaling-stroke"  transform=" translate(-255.72, -281.11)" d="M 424.188 85.594 C 424.518 85.64399999999999 423.328 85.68799999999999 420.875 85.68799999999999 C 402.363 85.68799999999999 385.095 105.74799999999999 385.095 133.188 C 385.095 147.018 389.807 159.396 396.71900000000005 167.968 L 406.93600000000004 180.594 L 390.874 183.064 C 380.314 184.68099999999998 373.211 189.49599999999998 367.249 197.406 C 361.28700000000003 205.31600000000003 356.90500000000003 216.586 353.999 229.75 C 348.81300000000005 253.242 348.40900000000005 282.175 348.374 307.906 L 378.812 307.906 L 379.40500000000003 316.62600000000003 L 386.499 423.21900000000005 L 452.312 423.21900000000005 L 460.342 316.52900000000005 L 460.99899999999997 307.90500000000003 L 492.99899999999997 307.90500000000003 C 492.75899999999996 282.52200000000005 491.37899999999996 253.97200000000004 485.655 230.65500000000003 C 482.44199999999995 217.56900000000002 477.87199999999996 206.30100000000004 471.96799999999996 198.28000000000003 C 466.063 190.26000000000002 459.268 185.43000000000004 449.90399999999994 183.68700000000004 L 434.1839999999999 180.75000000000003 L 444.4669999999999 168.50000000000003 C 451.69499999999994 159.87700000000004 456.6529999999999 147.36200000000002 456.6529999999999 133.187 C 456.6529999999999 107.44700000000002 441.1529999999999 87.781 424.37299999999993 85.62500000000001 L 424.18499999999995 85.59500000000001 z M 179.438 88.969 C 133.53799999999998 88.975 79.594 94.342 17.812999999999988 106.874 L 17.812999999999988 126 C 285.83099999999996 88.352 359.358 164.15 244.063 205.344 C 126.73599999999999 247.264 33.56 457.602 403.469 475.938 C 407.831 476.376 412.319 476.625 416.905 476.625 C 439.18499999999995 476.625 459.245 471.173 473.03 463.031 C 486.81699999999995 454.891 493.625 444.891 493.625 435.126 C 493.625 425.36099999999993 486.817 415.36199999999997 473.031 407.21999999999997 C 472.801 407.082 472.549 406.948 472.314 406.81199999999995 L 470.314 433.2819999999999 L 469.65700000000004 441.93799999999993 L 369 441.93799999999993 L 368.437 433.18799999999993 L 365.15700000000004 383.68799999999993 C 236.96300000000005 386.48799999999994 201.90100000000004 283.17799999999994 285.06300000000005 253.21799999999993 C 305.44800000000004 245.87399999999994 322.14900000000006 237.38199999999992 335.25000000000006 228.18799999999993 C 335.4200000000001 227.36599999999993 335.57000000000005 226.53299999999993 335.75000000000006 225.71799999999993 C 339.01200000000006 210.94399999999993 344.0060000000001 197.21999999999994 352.34400000000005 186.15599999999995 C 357.2900000000001 179.59299999999996 363.58400000000006 174.08599999999996 371.0640000000001 170.18599999999995 C 367.94000000000005 127.63899999999995 302.7290000000001 88.94999999999995 179.43700000000007 88.96899999999995 z" stroke-linecap="round" />
</g>
<g transform="matrix(0.2 0 0 0.2 76.23 228.79)"  >
<path style="stroke: rgb(0,0,0); stroke-width: 0; stroke-dasharray: none; stroke-linecap: butt; stroke-dashoffset: 0; stroke-linejoin: miter; stroke-miterlimit: 4; fill: rgb(255,255,255); fill-rule: nonzero; opacity: 1;" vector-effect="non-scaling-stroke"  transform=" translate(-255.72, -281.11)" d="M 424.188 85.594 C 424.518 85.64399999999999 423.328 85.68799999999999 420.875 85.68799999999999 C 402.363 85.68799999999999 385.095 105.74799999999999 385.095 133.188 C 385.095 147.018 389.807 159.396 396.71900000000005 167.968 L 406.93600000000004 180.594 L 390.874 183.064 C 380.314 184.68099999999998 373.211 189.49599999999998 367.249 197.406 C 361.28700000000003 205.31600000000003 356.90500000000003 216.586 353.999 229.75 C 348.81300000000005 253.242 348.40900000000005 282.175 348.374 307.906 L 378.812 307.906 L 379.40500000000003 316.62600000000003 L 386.499 423.21900000000005 L 452.312 423.21900000000005 L 460.342 316.52900000000005 L 460.99899999999997 307.90500000000003 L 492.99899999999997 307.90500000000003 C 492.75899999999996 282.52200000000005 491.37899999999996 253.97200000000004 485.655 230.65500000000003 C 482.44199999999995 217.56900000000002 477.87199999999996 206.30100000000004 471.96799999999996 198.28000000000003 C 466.063 190.26000000000002 459.268 185.43000000000004 449.90399999999994 183.68700000000004 L 434.1839999999999 180.75000000000003 L 444.4669999999999 168.50000000000003 C 451.69499999999994 159.87700000000004 456.6529999999999 147.36200000000002 456.6529999999999 133.187 C 456.6529999999999 107.44700000000002 441.1529999999999 87.781 424.37299999999993 85.62500000000001 L 424.18499999999995 85.59500000000001 z M 179.438 88.969 C 133.53799999999998 88.975 79.594 94.342 17.812999999999988 106.874 L 17.812999999999988 126 C 285.83099999999996 88.352 359.358 164.15 244.063 205.344 C 126.73599999999999 247.264 33.56 457.602 403.469 475.938 C 407.831 476.376 412.319 476.625 416.905 476.625 C 439.18499999999995 476.625 459.245 471.173 473.03 463.031 C 486.81699999999995 454.891 493.625 444.891 493.625 435.126 C 493.625 425.36099999999993 486.817 415.36199999999997 473.031 407.21999999999997 C 472.801 407.082 472.549 406.948 472.314 406.81199999999995 L 470.314 433.2819999999999 L 469.65700000000004 441.93799999999993 L 369 441.93799999999993 L 368.437 433.18799999999993 L 365.15700000000004 383.68799999999993 C 236.96300000000005 386.48799999999994 201.90100000000004 283.17799999999994 285.06300000000005 253.21799999999993 C 305.44800000000004 245.87399999999994 322.14900000000006 237.38199999999992 335.25000000000006 228.18799999999993 C 335.4200000000001 227.36599999999993 335.57000000000005 226.53299999999993 335.75000000000006 225.71799999999993 C 339.01200000000006 210.94399999999993 344.0060000000001 197.21999999999994 352.34400000000005 186.15599999999995 C 357.2900000000001 179.59299999999996 363.58400000000006 174.08599999999996 371.0640000000001 170.18599999999995 C 367.94000000000005 127.63899999999995 302.7290000000001 88.94999999999995 179.43700000000007 88.96899999999995 z" stroke-linecap="round" />
</g>
<g transform="matrix(0.2 0 0 0.2 387.44 71.82)"  >
<path style="stroke: rgb(0,0,0); stroke-width: 0; stroke-dasharray: none; stroke-linecap: butt; stroke-dashoffset: 0; stroke-linejoin: miter; stroke-miterlimit: 4; fill: rgb(255,255,255); fill-rule: nonzero; opacity: 1;" vector-effect="non-scaling-stroke"  transform=" translate(-255.72, -281.11)" d="M 424.188 85.594 C 424.518 85.64399999999999 423.328 85.68799999999999 420.875 85.68799999999999 C 402.363 85.68799999999999 385.095 105.74799999999999 385.095 133.188 C 385.095 147.018 389.807 159.396 396.71900000000005 167.968 L 406.93600000000004 180.594 L 390.874 183.064 C 380.314 184.68099999999998 373.211 189.49599999999998 367.249 197.406 C 361.28700000000003 205.31600000000003 356.90500000000003 216.586 353.999 229.75 C 348.81300000000005 253.242 348.40900000000005 282.175 348.374 307.906 L 378.812 307.906 L 379.40500000000003 316.62600000000003 L 386.499 423.21900000000005 L 452.312 423.21900000000005 L 460.342 316.52900000000005 L 460.99899999999997 307.90500000000003 L 492.99899999999997 307.90500000000003 C 492.75899999999996 282.52200000000005 491.37899999999996 253.97200000000004 485.655 230.65500000000003 C 482.44199999999995 217.56900000000002 477.87199999999996 206.30100000000004 471.96799999999996 198.28000000000003 C 466.063 190.26000000000002 459.268 185.43000000000004 449.90399999999994 183.68700000000004 L 434.1839999999999 180.75000000000003 L 444.4669999999999 168.50000000000003 C 451.69499999999994 159.87700000000004 456.6529999999999 147.36200000000002 456.6529999999999 133.187 C 456.6529999999999 107.44700000000002 441.1529999999999 87.781 424.37299999999993 85.62500000000001 L 424.18499999999995 85.59500000000001 z M 179.438 88.969 C 133.53799999999998 88.975 79.594 94.342 17.812999999999988 106.874 L 17.812999999999988 126 C 285.83099999999996 88.352 359.358 164.15 244.063 205.344 C 126.73599999999999 247.264 33.56 457.602 403.469 475.938 C 407.831 476.376 412.319 476.625 416.905 476.625 C 439.18499999999995 476.625 459.245 471.173 473.03 463.031 C 486.81699999999995 454.891 493.625 444.891 493.625 435.126 C 493.625 425.36099999999993 486.817 415.36199999999997 473.031 407.21999999999997 C 472.801 407.082 472.549 406.948 472.314 406.81199999999995 L 470.314 433.2819999999999 L 469.65700000000004 441.93799999999993 L 369 441.93799999999993 L 368.437 433.18799999999993 L 365.15700000000004 383.68799999999993 C 236.96300000000005 386.48799999999994 201.90100000000004 283.17799999999994 285.06300000000005 253.21799999999993 C 305.44800000000004 245.87399999999994 322.14900000000006 237.38199999999992 335.25000000000006 228.18799999999993 C 335.4200000000001 227.36599999999993 335.57000000000005 226.53299999999993 335.75000000000006 225.71799999999993 C 339.01200000000006 210.94399999999993 344.0060000000001 197.21999999999994 352.34400000000005 186.15599999999995 C 357.2900000000001 179.59299999999996 363.58400000000006 174.08599999999996 371.0640000000001 170.18599999999995 C 367.94000000000005 127.63899999999995 302.7290000000001 88.94999999999995 179.43700000000007 88.96899999999995 z" stroke-linecap="round" />
</g>
<g transform="matrix(0.2 0 0 0.2 532.6 231.21)"  >
<path style="stroke: rgb(0,0,0); stroke-width: 0; stroke-dasharray: none; stroke-linecap: butt; stroke-dashoffset: 0; stroke-linejoin: miter; stroke-miterlimit: 4; fill: rgb(255,255,255); fill-rule: nonzero; opacity: 1;" vector-effect="non-scaling-stroke"  transform=" translate(-255.72, -281.11)" d="M 424.188 85.594 C 424.518 85.64399999999999 423.328 85.68799999999999 420.875 85.68799999999999 C 402.363 85.68799999999999 385.095 105.74799999999999 385.095 133.188 C 385.095 147.018 389.807 159.396 396.71900000000005 167.968 L 406.93600000000004 180.594 L 390.874 183.064 C 380.314 184.68099999999998 373.211 189.49599999999998 367.249 197.406 C 361.28700000000003 205.31600000000003 356.90500000000003 216.586 353.999 229.75 C 348.81300000000005 253.242 348.40900000000005 282.175 348.374 307.906 L 378.812 307.906 L 379.40500000000003 316.62600000000003 L 386.499 423.21900000000005 L 452.312 423.21900000000005 L 460.342 316.52900000000005 L 460.99899999999997 307.90500000000003 L 492.99899999999997 307.90500000000003 C 492.75899999999996 282.52200000000005 491.37899999999996 253.97200000000004 485.655 230.65500000000003 C 482.44199999999995 217.56900000000002 477.87199999999996 206.30100000000004 471.96799999999996 198.28000000000003 C 466.063 190.26000000000002 459.268 185.43000000000004 449.90399999999994 183.68700000000004 L 434.1839999999999 180.75000000000003 L 444.4669999999999 168.50000000000003 C 451.69499999999994 159.87700000000004 456.6529999999999 147.36200000000002 456.6529999999999 133.187 C 456.6529999999999 107.44700000000002 441.1529999999999 87.781 424.37299999999993 85.62500000000001 L 424.18499999999995 85.59500000000001 z M 179.438 88.969 C 133.53799999999998 88.975 79.594 94.342 17.812999999999988 106.874 L 17.812999999999988 126 C 285.83099999999996 88.352 359.358 164.15 244.063 205.344 C 126.73599999999999 247.264 33.56 457.602 403.469 475.938 C 407.831 476.376 412.319 476.625 416.905 476.625 C 439.18499999999995 476.625 459.245 471.173 473.03 463.031 C 486.81699999999995 454.891 493.625 444.891 493.625 435.126 C 493.625 425.36099999999993 486.817 415.36199999999997 473.031 407.21999999999997 C 472.801 407.082 472.549 406.948 472.314 406.81199999999995 L 470.314 433.2819999999999 L 469.65700000000004 441.93799999999993 L 369 441.93799999999993 L 368.437 433.18799999999993 L 365.15700000000004 383.68799999999993 C 236.96300000000005 386.48799999999994 201.90100000000004 283.17799999999994 285.06300000000005 253.21799999999993 C 305.44800000000004 245.87399999999994 322.14900000000006 237.38199999999992 335.25000000000006 228.18799999999993 C 335.4200000000001 227.36599999999993 335.57000000000005 226.53299999999993 335.75000000000006 225.71799999999993 C 339.01200000000006 210.94399999999993 344.0060000000001 197.21999999999994 352.34400000000005 186.15599999999995 C 357.2900000000001 179.59299999999996 363.58400000000006 174.08599999999996 371.0640000000001 170.18599999999995 C 367.94000000000005 127.63899999999995 302.7290000000001 88.94999999999995 179.43700000000007 88.96899999999995 z" stroke-linecap="round" />
</g>
<g transform="matrix(0.2 0 0 0.2 526.24 73.94)"  >
<path style="stroke: rgb(0,0,0); stroke-width: 0; stroke-dasharray: none; stroke-linecap: butt; stroke-dashoffset: 0; stroke-linejoin: miter; stroke-miterlimit: 4; fill: rgb(255,255,255); fill-rule: nonzero; opacity: 1;" vector-effect="non-scaling-stroke"  transform=" translate(-255.72, -281.11)" d="M 424.188 85.594 C 424.518 85.64399999999999 423.328 85.68799999999999 420.875 85.68799999999999 C 402.363 85.68799999999999 385.095 105.74799999999999 385.095 133.188 C 385.095 147.018 389.807 159.396 396.71900000000005 167.968 L 406.93600000000004 180.594 L 390.874 183.064 C 380.314 184.68099999999998 373.211 189.49599999999998 367.249 197.406 C 361.28700000000003 205.31600000000003 356.90500000000003 216.586 353.999 229.75 C 348.81300000000005 253.242 348.40900000000005 282.175 348.374 307.906 L 378.812 307.906 L 379.40500000000003 316.62600000000003 L 386.499 423.21900000000005 L 452.312 423.21900000000005 L 460.342 316.52900000000005 L 460.99899999999997 307.90500000000003 L 492.99899999999997 307.90500000000003 C 492.75899999999996 282.52200000000005 491.37899999999996 253.97200000000004 485.655 230.65500000000003 C 482.44199999999995 217.56900000000002 477.87199999999996 206.30100000000004 471.96799999999996 198.28000000000003 C 466.063 190.26000000000002 459.268 185.43000000000004 449.90399999999994 183.68700000000004 L 434.1839999999999 180.75000000000003 L 444.4669999999999 168.50000000000003 C 451.69499999999994 159.87700000000004 456.6529999999999 147.36200000000002 456.6529999999999 133.187 C 456.6529999999999 107.44700000000002 441.1529999999999 87.781 424.37299999999993 85.62500000000001 L 424.18499999999995 85.59500000000001 z M 179.438 88.969 C 133.53799999999998 88.975 79.594 94.342 17.812999999999988 106.874 L 17.812999999999988 126 C 285.83099999999996 88.352 359.358 164.15 244.063 205.344 C 126.73599999999999 247.264 33.56 457.602 403.469 475.938 C 407.831 476.376 412.319 476.625 416.905 476.625 C 439.18499999999995 476.625 459.245 471.173 473.03 463.031 C 486.81699999999995 454.891 493.625 444.891 493.625 435.126 C 493.625 425.36099999999993 486.817 415.36199999999997 473.031 407.21999999999997 C 472.801 407.082 472.549 406.948 472.314 406.81199999999995 L 470.314 433.2819999999999 L 469.65700000000004 441.93799999999993 L 369 441.93799999999993 L 368.437 433.18799999999993 L 365.15700000000004 383.68799999999993 C 236.96300000000005 386.48799999999994 201.90100000000004 283.17799999999994 285.06300000000005 253.21799999999993 C 305.44800000000004 245.87399999999994 322.14900000000006 237.38199999999992 335.25000000000006 228.18799999999993 C 335.4200000000001 227.36599999999993 335.57000000000005 226.53299999999993 335.75000000000006 225.71799999999993 C 339.01200000000006 210.94399999999993 344.0060000000001 197.21999999999994 352.34400000000005 186.15599999999995 C 357.2900000000001 179.59299999999996 363.58400000000006 174.08599999999996 371.0640000000001 170.18599999999995 C 367.94000000000005 127.63899999999995 302.7290000000001 88.94999999999995 179.43700000000007 88.96899999999995 z" stroke-linecap="round" />
</g>
<g transform="matrix(0.2 0 0 0.2 381.38 230.3)"  >
<path style="stroke: rgb(0,0,0); stroke-width: 0; stroke-dasharray: none; stroke-linecap: butt; stroke-dashoffset: 0; stroke-linejoin: miter; stroke-miterlimit: 4; fill: rgb(255,255,255); fill-rule: nonzero; opacity: 1;" vector-effect="non-scaling-stroke"  transform=" translate(-255.72, -281.11)" d="M 424.188 85.594 C 424.518 85.64399999999999 423.328 85.68799999999999 420.875 85.68799999999999 C 402.363 85.68799999999999 385.095 105.74799999999999 385.095 133.188 C 385.095 147.018 389.807 159.396 396.71900000000005 167.968 L 406.93600000000004 180.594 L 390.874 183.064 C 380.314 184.68099999999998 373.211 189.49599999999998 367.249 197.406 C 361.28700000000003 205.31600000000003 356.90500000000003 216.586 353.999 229.75 C 348.81300000000005 253.242 348.40900000000005 282.175 348.374 307.906 L 378.812 307.906 L 379.40500000000003 316.62600000000003 L 386.499 423.21900000000005 L 452.312 423.21900000000005 L 460.342 316.52900000000005 L 460.99899999999997 307.90500000000003 L 492.99899999999997 307.90500000000003 C 492.75899999999996 282.52200000000005 491.37899999999996 253.97200000000004 485.655 230.65500000000003 C 482.44199999999995 217.56900000000002 477.87199999999996 206.30100000000004 471.96799999999996 198.28000000000003 C 466.063 190.26000000000002 459.268 185.43000000000004 449.90399999999994 183.68700000000004 L 434.1839999999999 180.75000000000003 L 444.4669999999999 168.50000000000003 C 451.69499999999994 159.87700000000004 456.6529999999999 147.36200000000002 456.6529999999999 133.187 C 456.6529999999999 107.44700000000002 441.1529999999999 87.781 424.37299999999993 85.62500000000001 L 424.18499999999995 85.59500000000001 z M 179.438 88.969 C 133.53799999999998 88.975 79.594 94.342 17.812999999999988 106.874 L 17.812999999999988 126 C 285.83099999999996 88.352 359.358 164.15 244.063 205.344 C 126.73599999999999 247.264 33.56 457.602 403.469 475.938 C 407.831 476.376 412.319 476.625 416.905 476.625 C 439.18499999999995 476.625 459.245 471.173 473.03 463.031 C 486.81699999999995 454.891 493.625 444.891 493.625 435.126 C 493.625 425.36099999999993 486.817 415.36199999999997 473.031 407.21999999999997 C 472.801 407.082 472.549 406.948 472.314 406.81199999999995 L 470.314 433.2819999999999 L 469.65700000000004 441.93799999999993 L 369 441.93799999999993 L 368.437 433.18799999999993 L 365.15700000000004 383.68799999999993 C 236.96300000000005 386.48799999999994 201.90100000000004 283.17799999999994 285.06300000000005 253.21799999999993 C 305.44800000000004 245.87399999999994 322.14900000000006 237.38199999999992 335.25000000000006 228.18799999999993 C 335.4200000000001 227.36599999999993 335.57000000000005 226.53299999999993 335.75000000000006 225.71799999999993 C 339.01200000000006 210.94399999999993 344.0060000000001 197.21999999999994 352.34400000000005 186.15599999999995 C 357.2900000000001 179.59299999999996 363.58400000000006 174.08599999999996 371.0640000000001 170.18599999999995 C 367.94000000000005 127.63899999999995 302.7290000000001 88.94999999999995 179.43700000000007 88.96899999999995 z" stroke-linecap="round" />
</g>
<g transform="matrix(0.2 0 0 0.2 227.14 71.59)"  >
<path style="stroke: rgb(0,0,0); stroke-width: 0; stroke-dasharray: none; stroke-linecap: butt; stroke-dashoffset: 0; stroke-linejoin: miter; stroke-miterlimit: 4; fill: rgb(255,255,255); fill-rule: nonzero; opacity: 1;" vector-effect="non-scaling-stroke"  transform=" translate(-255.72, -281.11)" d="M 424.188 85.594 C 424.518 85.64399999999999 423.328 85.68799999999999 420.875 85.68799999999999 C 402.363 85.68799999999999 385.095 105.74799999999999 385.095 133.188 C 385.095 147.018 389.807 159.396 396.71900000000005 167.968 L 406.93600000000004 180.594 L 390.874 183.064 C 380.314 184.68099999999998 373.211 189.49599999999998 367.249 197.406 C 361.28700000000003 205.31600000000003 356.90500000000003 216.586 353.999 229.75 C 348.81300000000005 253.242 348.40900000000005 282.175 348.374 307.906 L 378.812 307.906 L 379.40500000000003 316.62600000000003 L 386.499 423.21900000000005 L 452.312 423.21900000000005 L 460.342 316.52900000000005 L 460.99899999999997 307.90500000000003 L 492.99899999999997 307.90500000000003 C 492.75899999999996 282.52200000000005 491.37899999999996 253.97200000000004 485.655 230.65500000000003 C 482.44199999999995 217.56900000000002 477.87199999999996 206.30100000000004 471.96799999999996 198.28000000000003 C 466.063 190.26000000000002 459.268 185.43000000000004 449.90399999999994 183.68700000000004 L 434.1839999999999 180.75000000000003 L 444.4669999999999 168.50000000000003 C 451.69499999999994 159.87700000000004 456.6529999999999 147.36200000000002 456.6529999999999 133.187 C 456.6529999999999 107.44700000000002 441.1529999999999 87.781 424.37299999999993 85.62500000000001 L 424.18499999999995 85.59500000000001 z M 179.438 88.969 C 133.53799999999998 88.975 79.594 94.342 17.812999999999988 106.874 L 17.812999999999988 126 C 285.83099999999996 88.352 359.358 164.15 244.063 205.344 C 126.73599999999999 247.264 33.56 457.602 403.469 475.938 C 407.831 476.376 412.319 476.625 416.905 476.625 C 439.18499999999995 476.625 459.245 471.173 473.03 463.031 C 486.81699999999995 454.891 493.625 444.891 493.625 435.126 C 493.625 425.36099999999993 486.817 415.36199999999997 473.031 407.21999999999997 C 472.801 407.082 472.549 406.948 472.314 406.81199999999995 L 470.314 433.2819999999999 L 469.65700000000004 441.93799999999993 L 369 441.93799999999993 L 368.437 433.18799999999993 L 365.15700000000004 383.68799999999993 C 236.96300000000005 386.48799999999994 201.90100000000004 283.17799999999994 285.06300000000005 253.21799999999993 C 305.44800000000004 245.87399999999994 322.14900000000006 237.38199999999992 335.25000000000006 228.18799999999993 C 335.4200000000001 227.36599999999993 335.57000000000005 226.53299999999993 335.75000000000006 225.71799999999993 C 339.01200000000006 210.94399999999993 344.0060000000001 197.21999999999994 352.34400000000005 186.15599999999995 C 357.2900000000001 179.59299999999996 363.58400000000006 174.08599999999996 371.0640000000001 170.18599999999995 C 367.94000000000005 127.63899999999995 302.7290000000001 88.94999999999995 179.43700000000007 88.96899999999995 z" stroke-linecap="round" />
</g>
<g transform="matrix(0.2 0 0 0.2 74.71 73.34)"  >
<path style="stroke: rgb(0,0,0); stroke-width: 0; stroke-dasharray: none; stroke-linecap: butt; stroke-dashoffset: 0; stroke-linejoin: miter; stroke-miterlimit: 4; fill: rgb(255,255,255); fill-rule: nonzero; opacity: 1;" vector-effect="non-scaling-stroke"  transform=" translate(-255.72, -281.11)" d="M 424.188 85.594 C 424.518 85.64399999999999 423.328 85.68799999999999 420.875 85.68799999999999 C 402.363 85.68799999999999 385.095 105.74799999999999 385.095 133.188 C 385.095 147.018 389.807 159.396 396.71900000000005 167.968 L 406.93600000000004 180.594 L 390.874 183.064 C 380.314 184.68099999999998 373.211 189.49599999999998 367.249 197.406 C 361.28700000000003 205.31600000000003 356.90500000000003 216.586 353.999 229.75 C 348.81300000000005 253.242 348.40900000000005 282.175 348.374 307.906 L 378.812 307.906 L 379.40500000000003 316.62600000000003 L 386.499 423.21900000000005 L 452.312 423.21900000000005 L 460.342 316.52900000000005 L 460.99899999999997 307.90500000000003 L 492.99899999999997 307.90500000000003 C 492.75899999999996 282.52200000000005 491.37899999999996 253.97200000000004 485.655 230.65500000000003 C 482.44199999999995 217.56900000000002 477.87199999999996 206.30100000000004 471.96799999999996 198.28000000000003 C 466.063 190.26000000000002 459.268 185.43000000000004 449.90399999999994 183.68700000000004 L 434.1839999999999 180.75000000000003 L 444.4669999999999 168.50000000000003 C 451.69499999999994 159.87700000000004 456.6529999999999 147.36200000000002 456.6529999999999 133.187 C 456.6529999999999 107.44700000000002 441.1529999999999 87.781 424.37299999999993 85.62500000000001 L 424.18499999999995 85.59500000000001 z M 179.438 88.969 C 133.53799999999998 88.975 79.594 94.342 17.812999999999988 106.874 L 17.812999999999988 126 C 285.83099999999996 88.352 359.358 164.15 244.063 205.344 C 126.73599999999999 247.264 33.56 457.602 403.469 475.938 C 407.831 476.376 412.319 476.625 416.905 476.625 C 439.18499999999995 476.625 459.245 471.173 473.03 463.031 C 486.81699999999995 454.891 493.625 444.891 493.625 435.126 C 493.625 425.36099999999993 486.817 415.36199999999997 473.031 407.21999999999997 C 472.801 407.082 472.549 406.948 472.314 406.81199999999995 L 470.314 433.2819999999999 L 469.65700000000004 441.93799999999993 L 369 441.93799999999993 L 368.437 433.18799999999993 L 365.15700000000004 383.68799999999993 C 236.96300000000005 386.48799999999994 201.90100000000004 283.17799999999994 285.06300000000005 253.21799999999993 C 305.44800000000004 245.87399999999994 322.14900000000006 237.38199999999992 335.25000000000006 228.18799999999993 C 335.4200000000001 227.36599999999993 335.57000000000005 226.53299999999993 335.75000000000006 225.71799999999993 C 339.01200000000006 210.94399999999993 344.0060000000001 197.21999999999994 352.34400000000005 186.15599999999995 C 357.2900000000001 179.59299999999996 363.58400000000006 174.08599999999996 371.0640000000001 170.18599999999995 C 367.94000000000005 127.63899999999995 302.7290000000001 88.94999999999995 179.43700000000007 88.96899999999995 z" stroke-linecap="round" />
</g>
</svg>