<?xml version="1.0" encoding="UTF-8" standalone="no" ?>
<!DOCTYPE svg PUBLIC "-//W3C//DTD SVG 1.1//EN" "http://www.w3.org/Graphics/SVG/1.1/DTD/svg11.dtd">
<svg xmlns="http://www.w3.org/2000/svg" xmlns:xlink="http://www.w3.org/1999/xlink" version="1.1" width="100" height="100" viewBox="0 0 100 100" xml:space="preserve">
<desc>Created with Fabric.js 5.2.4</desc>
<defs>
</defs>
<rect x="0" y="0" width="100%" height="100%" fill="transparent"></rect>
<g transform="matrix(1 0 0 1 50 50)" id="b12ac869-ccff-48c7-b20e-e8423aa15033"  >
<rect style="stroke: none; stroke-width: 1; stroke-dasharray: none; stroke-linecap: butt; stroke-dashoffset: 0; stroke-linejoin: miter; stroke-miterlimit: 4; fill: rgb(226,184,81); fill-rule: nonzero; opacity: 1;" vector-effect="non-scaling-stroke"  x="-50" y="-50" rx="0" ry="0" width="100" height="100" />
</g>
<g transform="matrix(0 0 0 0 0 0)" id="1ed7c54a-17a0-467e-84be-3606259d427b"  >
</g>
<g transform="matrix(0.09 0 0 0.09 49.15 49.15)"  >
<path style="stroke: rgb(0,0,0); stroke-width: 0; stroke-dasharray: none; stroke-linecap: butt; stroke-dashoffset: 0; stroke-linejoin: miter; stroke-miterlimit: 4; fill: rgb(255,255,255); fill-rule: nonzero; opacity: 1;" vector-effect="non-scaling-stroke"  transform=" translate(-258.31, -253.34)" d="M 320.063 19.72 C 247.805 34.295 300.815 91.413 245.719 128.53 C 250.565 128.04 255.465 127.828 260.37399999999997 127.906 C 276.662 128.166 293.159 131.626 308.96799999999996 138.626 C 313.92799999999994 140.822 318.691 143.293 323.21799999999996 146.031 C 335.32499999999993 98.555 286.11499999999995 49.65100000000001 320.05999999999995 19.721000000000004 z M 136.75 44.47 C 95.99000000000001 105.827 173.734 108.8 161.156 173.875 C 178.56300000000002 152.62 202.32600000000002 137.975 228.312 131.562 C 203.306 89.424 133.912 89.638 136.75 44.46900000000001 z M 434.063 119.875 C 401.51599999999996 120.747 388.58799999999997 166.189 337.469 156.095 C 358.819 173.515 373.503 197.345 379.936 223.405 C 422.24199999999996 198.485 421.989 128.93900000000002 467.21799999999996 131.781 C 453.78799999999995 122.861 443.15799999999996 119.631 434.05999999999995 119.876 z M 256.09299999999996 146.531 C 232.43699999999995 146.991 209.56299999999996 155.351 191.18699999999995 170.157 L 209.84399999999997 206.31300000000002 L 170 193.156 C 166.424 198.42000000000002 163.263 204.064 160.594 210.094 C 151.868 229.802 149.59199999999998 250.684 152.814 270.438 L 197.594 272.563 L 163.594 302.875 C 174.392 323.497 192.00799999999998 340.727 215 350.905 C 218.077 352.26899999999995 221.186 353.479 224.313 354.53099999999995 L 248.843 316.28099999999995 L 257.938 360.09499999999997 C 285.238 360.16999999999996 311.675 349.70799999999997 331.531 330.907 L 312.345 293.782 L 350.75100000000003 306.44 C 352.57300000000004 303.252 354.26300000000003 299.93399999999997 355.781 296.502 C 365.527 274.492 367.238 251.00400000000002 362.221 229.282 L 324.595 227.532 L 352.28200000000004 202.81400000000002 C 341.45200000000006 182.62000000000003 324.04600000000005 165.74400000000003 301.408 155.721 C 300.038 155.114 298.663 154.54500000000002 297.283 154.001 L 271.409 194.31400000000002 L 261.503 146.56400000000002 C 261.003 146.54800000000003 260.503 146.54100000000003 260.003 146.532 C 258.703 146.512 257.393 146.508 256.097 146.532 z M 133.407 186.5 C 91.75500000000001 187.225 50.92400000000001 221.347 24.687000000000012 191.594 C 39.26000000000001 263.828 96.35100000000001 210.894 133.47000000000003 265.906 C 131.31600000000003 244.934 134.40400000000002 223.148 143.53000000000003 202.531 C 145.70800000000003 197.616 148.16700000000003 192.92700000000002 150.87500000000003 188.43800000000002 C 145.05300000000003 186.96800000000002 139.23300000000003 186.4 133.40500000000003 186.501 z M 382.90700000000004 240.47 C 385.11100000000005 261.517 382.04 283.396 372.87700000000007 304.094 L 372.6890000000001 304.469 C 370.5460000000001 309.265 368.1190000000001 313.86199999999997 365.46900000000005 318.24899999999997 C 412.99300000000005 330.49299999999994 461.97600000000006 281.11199999999997 491.9390000000001 315.09299999999996 C 477.33600000000007 242.70499999999996 420.01900000000006 296.05299999999994 382.9070000000001 240.46799999999996 z M 136.53 283.405 C 94.40700000000001 308.419 94.602 377.775 49.437 374.93499999999995 C 110.859 415.73799999999994 113.759 337.81199999999995 179.031 350.59299999999996 C 157.687 333.20799999999997 143.001 309.42599999999993 136.531 283.405 z M 355.594 332.311 C 338.188 353.77099999999996 314.358 368.551 288.25 375.03099999999995 C 313.194 417.2939999999999 382.747 417.03499999999997 379.906 462.24899999999997 C 420.773 400.729 342.504 397.89099999999996 355.594 332.311 z M 193.406 360.72 C 181.359 408.17600000000004 230.493 457.05 196.562 486.97 C 268.867 472.38300000000004 215.757 415.18 271.03200000000004 378.062 C 249.99200000000005 380.266 228.13400000000004 377.16200000000003 207.43800000000005 368 C 202.55400000000003 365.838 197.86800000000005 363.406 193.40600000000003 360.72 z" stroke-linecap="round" />
</g>
<g transform="matrix(0.64 0 0 0.65 49.92 49.82)"  >
<path style="stroke: rgb(0,0,0); stroke-width: 0; stroke-dasharray: none; stroke-linecap: butt; stroke-dashoffset: 0; stroke-linejoin: miter; stroke-miterlimit: 4; fill: rgb(255,255,255); fill-rule: nonzero; opacity: 1;" vector-effect="non-scaling-stroke"  transform=" translate(-50, -50)" d="M 90.375 90.375 L 9.625 90.375 L 9.625 9.625 L 90.375 9.625 L 90.375 90.375 z M 11.625 88.375 L 88.375 88.375 L 88.375 11.625 L 11.625 11.625 L 11.625 88.375 z" stroke-linecap="round" />
</g>
</svg>