<?xml version="1.0" encoding="UTF-8" standalone="no" ?>
<!DOCTYPE svg PUBLIC "-//W3C//DTD SVG 1.1//EN" "http://www.w3.org/Graphics/SVG/1.1/DTD/svg11.dtd">
<svg xmlns="http://www.w3.org/2000/svg" xmlns:xlink="http://www.w3.org/1999/xlink" version="1.1" width="150" height="150" viewBox="5.77 -5.77 150 150" xml:space="preserve">
<desc>Created with Fabric.js 5.2.4</desc>
<defs>
</defs>
<rect x="0" y="0" width="100%" height="100%" fill="transparent"></rect>
<g transform="matrix(1 0 0 1 75 75)" id="c3a8e4b0-e66d-40e3-9d41-df1f19020a3b"  >
<rect style="stroke: none; stroke-width: 1; stroke-dasharray: none; stroke-linecap: butt; stroke-dashoffset: 0; stroke-linejoin: miter; stroke-miterlimit: 4; fill: rgb(255,255,255); fill-rule: nonzero; opacity: 1; visibility: hidden;" vector-effect="non-scaling-stroke"  x="-75" y="-75" rx="0" ry="0" width="150" height="150" />
</g>
<g transform="matrix(Infinity NaN NaN Infinity 0 0)" id="79ab6103-591f-40e2-8bd1-0c0d457fef1c"  >
</g>
<g transform="matrix(0.14 0 0 0.14 75 75)"  >
<path style="stroke: rgb(0,0,0); stroke-width: 0; stroke-dasharray: none; stroke-linecap: butt; stroke-dashoffset: 0; stroke-linejoin: miter; stroke-miterlimit: 4; fill: rgb(255,255,255); fill-rule: nonzero; opacity: 1;" vector-effect="non-scaling-stroke"  transform=" translate(-254.46, -246.08)" d="M 249.334 22.717 C 230.69400000000002 25.141 213.657 46.291 212.291 74.207 L 212.291 74.22699999999999 C 212.234 75.41299999999998 212.194 76.60699999999999 212.194 77.817 C 212.194 94.17899999999999 217.85199999999998 108.64399999999999 226.136 118.63499999999999 L 236.263 130.84799999999998 L 220.671 133.78099999999998 C 209.921 135.80599999999998 202.04899999999998 141.48299999999998 195.298 150.759 C 193.013 153.89899999999997 190.914 157.46599999999998 188.988 161.379 C 131.448 154.939 91.078 140.319 91.078 123.42699999999999 C 91.078 106.064 133.725 91.44399999999999 193.828 85.457 C 193.615 82.94699999999999 193.505 80.39999999999999 193.505 77.821 L 193.505 77.819 C 193.505 76.979 193.529 76.145 193.552 75.309 C 97.12199999999999 82.079 26.25399999999999 104.459 26.25199999999998 131.019 C 26.249999999999982 156.349 90.71399999999998 177.87900000000002 180.326 185.68900000000002 C 180.136 186.431 179.932 187.15400000000002 179.75 187.90500000000003 C 177.39 197.62500000000003 175.7 208.12500000000003 174.482 218.93500000000003 C 174.472 218.93500000000003 174.462 218.93500000000003 174.452 218.93700000000004 C 174.034 222.59000000000003 173.672 226.27700000000004 173.357 229.98300000000003 L 173.407 229.97800000000004 C 172.091 245.75500000000002 171.63500000000002 261.85800000000006 171.514 276.92800000000005 L 207.40800000000002 276.92800000000005 L 209.52300000000002 305.32800000000003 C 141.28300000000002 300.33400000000006 91.07900000000002 284.324 91.07900000000002 265.485 C 91.07900000000002 252.24200000000002 115.90900000000002 240.59500000000003 154.34900000000002 233.15500000000003 C 154.64900000000003 229.09900000000002 155.00900000000001 225.04000000000002 155.425 220.99300000000002 C 79.00500000000001 230.34600000000003 26.255000000000024 250.16100000000003 26.253000000000014 273.079 C 26.251000000000015 301.249 105.96300000000001 324.722 211.35100000000003 329.847 L 217.29100000000003 409.61699999999996 C 227.79100000000003 412.265 242.13100000000003 413.77899999999994 256.30800000000005 413.68499999999995 C 270.09800000000007 413.59299999999996 283.54300000000006 411.97499999999997 292.75800000000004 409.68499999999995 L 298.021 329.83899999999994 C 403.329 324.69899999999996 482.956 301.2339999999999 482.956 273.07899999999995 C 482.956 250.06599999999995 429.76 230.18399999999994 352.826 220.87899999999996 C 353.13 224.89899999999997 353.38300000000004 228.92599999999996 353.581 232.94899999999996 C 392.464 240.37899999999996 417.54600000000005 252.11899999999997 417.54600000000005 265.48499999999996 C 417.54600000000005 284.32499999999993 367.7420000000001 300.335 299.63800000000003 305.32899999999995 L 301.50800000000004 276.92699999999996 L 335.68800000000005 276.92699999999996 C 335.67600000000004 261.81399999999996 335.56100000000004 245.65699999999995 334.65500000000003 229.83299999999997 C 334.665 229.83299999999997 334.675 229.83499999999998 334.687 229.83699999999996 C 334.473 226.14999999999995 334.21500000000003 222.48499999999996 333.90500000000003 218.85099999999997 L 333.88500000000005 218.84899999999996 C 332.94500000000005 207.69199999999995 331.51800000000003 196.86499999999995 329.33900000000006 186.88199999999995 C 329.2490000000001 186.47699999999995 329.15500000000003 186.07899999999995 329.0640000000001 185.67599999999996 C 418.5820000000001 177.84999999999997 482.9570000000001 156.33199999999997 482.9570000000001 131.01999999999995 C 482.9570000000001 104.23299999999995 410.8810000000001 81.68799999999996 313.1870000000001 75.13299999999995 C 313.2120000000001 76.02799999999995 313.2400000000001 76.92099999999995 313.2400000000001 77.82099999999996 C 313.2400000000001 80.32099999999996 313.13600000000014 82.79099999999995 312.93600000000015 85.22799999999995 C 374.12600000000015 91.06399999999995 417.54600000000016 105.83799999999995 417.54600000000016 123.42799999999995 C 417.54600000000016 140.23299999999995 377.9130000000002 154.78299999999996 321.02200000000016 161.27599999999995 C 319.01200000000017 156.99299999999997 316.76200000000017 153.12599999999995 314.26000000000016 149.77099999999996 C 307.4300000000002 140.60399999999996 299.1970000000002 134.96099999999996 287.1200000000002 133.08899999999997 L 271.20700000000016 130.61899999999997 L 281.24400000000014 118.02899999999997 C 288.17200000000014 109.33899999999997 293.1560000000001 97.31399999999996 294.30100000000016 83.76099999999997 L 294.30300000000017 83.76099999999997 C 294.4660000000002 81.81099999999996 294.55300000000017 79.83099999999996 294.55300000000017 77.82299999999996 C 294.55300000000017 77.05299999999997 294.5310000000002 76.29099999999997 294.50500000000017 75.53299999999996 C 294.4900000000002 75.05299999999995 294.47200000000015 74.57499999999996 294.44800000000015 74.09899999999996 L 294.44600000000014 74.09899999999996 C 292.9660000000001 44.35399999999996 273.93900000000014 22.798999999999964 253.37000000000015 22.798999999999964 C 250.84200000000016 22.798999999999964 249.40400000000014 22.711999999999964 249.34000000000015 22.718999999999966 L 249.33700000000016 22.718999999999966 z M 194.54 355.822 C 97.42999999999999 362.477 25.966999999999985 384.932 25.966999999999985 411.622 C 25.966999999999985 443.55400000000003 128.20999999999998 469.437 254.33399999999997 469.437 C 380.45799999999997 469.437 482.7 443.555 482.7 411.623 C 482.7 385.015 411.68 362.61899999999997 315.03 355.887 L 314.375 365.817 C 374.738 371.872 417.449 386.773 417.449 404.211 C 417.449 427.021 344.41700000000003 445.509 254.329 445.509 C 164.241 445.509 91.209 427.019 91.209 404.212 C 91.209 386.679 134.389 371.71 195.279 365.719 L 194.539 355.824 z" stroke-linecap="round" />
</g>
</svg>