<?xml version="1.0" encoding="UTF-8" standalone="no" ?>
<!DOCTYPE svg PUBLIC "-//W3C//DTD SVG 1.1//EN" "http://www.w3.org/Graphics/SVG/1.1/DTD/svg11.dtd">
<svg xmlns="http://www.w3.org/2000/svg" xmlns:xlink="http://www.w3.org/1999/xlink" version="1.1" width="1080" height="1080" viewBox="0 0 1080 1080" xml:space="preserve">
<desc>Created with Fabric.js 5.2.4</desc>
<defs>
</defs>
<rect x="0" y="0" width="100%" height="100%" fill="transparent"></rect>
<g transform="matrix(1 0 0 1 540 540)" id="369580ee-b3ec-48bb-a9e5-129309e5ba62"  >
</g>
<g transform="matrix(1 0 0 1 540 540)" id="04544e4c-ca39-47de-9531-b871a3bef1f6"  >
<rect style="stroke: none; stroke-width: 1; stroke-dasharray: none; stroke-linecap: butt; stroke-dashoffset: 0; stroke-linejoin: miter; stroke-miterlimit: 4; fill: rgb(255,255,255); fill-rule: nonzero; opacity: 1; visibility: hidden;" vector-effect="non-scaling-stroke"  x="-540" y="-540" rx="0" ry="0" width="1080" height="1080" />
</g>
<g transform="matrix(1 0 0 1 540 540)"  >
<path style="stroke: rgb(0,0,0); stroke-width: 0; stroke-dasharray: none; stroke-linecap: butt; stroke-dashoffset: 0; stroke-linejoin: miter; stroke-miterlimit: 4; fill: rgb(255,255,255); fill-rule: nonzero; opacity: 1;" vector-effect="non-scaling-stroke"  transform=" translate(-247.91, -256.23)" d="M 249.28 19.188 L 249.28 19.438 C 231.166 58.072 204.215 91.798 171.594 122.375 L 209.314 118.437 L 157.969 183.469 L 182.779 175.56199999999998 L 149.155 230.43699999999998 L 165.685 240.27999999999997 L 100.435 332.43699999999995 L 136.53 332.62499999999994 L 84.844 416.21899999999994 L 148.406 408.09299999999996 L 160.406 440.18699999999995 L 226.844 414.905 L 215.5 493.28 L 268.438 493.28 L 261.906 425.063 L 300.094 441.469 L 310.281 416.686 L 354.564 437.65599999999995 L 410.97 416.90599999999995 L 373.906 352.81199999999995 L 361.469 350.53 L 368.24899999999997 367.71999999999997 L 376.09299999999996 387.625 L 356.155 379.845 L 305.24899999999997 359.937 L 305.24899999999997 395.688 L 291.09299999999996 387.094 L 221.71799999999996 345.094 L 200.12299999999996 366.344 L 182.09299999999996 384.094 L 184.24799999999996 358.874 L 186.37299999999996 334.21900000000005 L 204.56099999999995 335.77900000000005 L 213.77899999999994 326.68700000000007 L 218.96899999999994 321.5930000000001 L 225.18699999999993 325.3430000000001 L 286.5619999999999 362.4990000000001 L 286.5619999999999 332.5930000000001 L 299.3119999999999 337.5630000000001 L 343.0299999999999 354.6550000000001 L 337.93799999999993 341.7490000000001 L 331.78099999999995 326.0930000000001 L 348.31399999999996 329.12300000000005 L 393.782 337.4680000000001 L 359.25199999999995 298.5280000000001 L 335.62699999999995 312.5610000000001 L 328.93899999999996 316.5290000000001 L 323.81399999999996 310.6550000000001 L 309.534 294.2180000000001 L 309.752 295.43500000000006 L 291.346 298.6550000000001 L 285.376 264.3420000000001 L 279.626 231.2790000000001 L 301.626 256.62400000000014 L 332.81399999999996 292.49900000000014 L 376.72099999999995 266.46900000000016 C 352.05099999999993 246.92600000000016 337.21399999999994 232.59900000000016 327.06299999999993 217.65500000000017 L 327.8759999999999 230.31100000000018 L 329.84599999999995 261.31100000000015 L 311.09599999999995 236.56100000000015 L 276.626 191.12400000000014 L 254.37599999999998 237.93700000000013 L 240.53199999999998 267.0620000000001 L 236.689 235.03000000000014 L 233.189 206.18700000000015 L 249.721 204.21900000000016 L 266.345 169.24900000000017 L 272.939 155.37400000000017 L 282.219 167.59400000000016 L 307.219 200.53000000000017 L 306.469 189.00000000000017 L 305.563 174.72000000000017 L 319.033 179.65600000000018 L 341.81 188 L 315.685 152.844 L 259.842 123.969 L 250.904 144.18699999999998 L 241.248 166.124 L 233.528 143.436 L 226.06 121.561 L 243.03 115.781 L 246.748 107.343 L 250.748 98.218 L 259.592 102.811 L 308.967 128.341 L 325.43399999999997 122.77900000000001 C 282.01399999999995 88.46900000000001 260.804 53.893000000000015 249.27799999999996 19.186000000000007 z" stroke-linecap="round" />
</g>
<g transform="matrix(0.46 0 0 0.46 540 676.96)" id="17e1be31-07b9-4b07-a918-521f22bb6578"  >
<path style="stroke: rgb(205,197,197); stroke-width: 1; stroke-dasharray: none; stroke-linecap: butt; stroke-dashoffset: 0; stroke-linejoin: miter; stroke-miterlimit: 4; fill: rgb(255,255,255); fill-rule: nonzero; opacity: 1;" vector-effect="non-scaling-stroke"  transform=" translate(-256, -258.55)" d="M 217 28.098 L 217 483.902 L 359 441.305 L 359 70.697 z M 376.938 54.977999999999994 L 377 57.30499999999999 L 377 87 L 393 87 L 393 55 z M 119 55 L 119 172.26999999999998 L 137 172.26999999999998 L 137 73 L 199 73 L 199 55 z M 377 105 L 377 121 L 393 121 L 393 105 z M 377 139 L 377 375 L 393 375 L 393 139 z M 137 197.727 L 137 233 L 41 233 L 41 279 L 137 279 L 137 314.273 L 195.273 256 z M 244 232 C 250.627 232 256 242.745 256 256 C 256 269.255 250.627 280 244 280 C 237.373 280 232 269.255 232 256 C 232 242.745 237.373 232 244 232 z M 137 339.73 L 119 339.73 L 119 448 L 137 448 z M 377 393 L 377 407 L 393 407 L 393 393 z M 377 425 L 377 448 L 393 448 L 393 425 z M 32 471 L 32 489 L 199 489 L 199 471 z M 322.652 471 L 262.652 489 L 480 489 L 480 471 z" stroke-linecap="round" />
</g>
</svg>