<?xml version="1.0" encoding="UTF-8" standalone="no" ?>
<!DOCTYPE svg PUBLIC "-//W3C//DTD SVG 1.1//EN" "http://www.w3.org/Graphics/SVG/1.1/DTD/svg11.dtd">
<svg xmlns="http://www.w3.org/2000/svg" xmlns:xlink="http://www.w3.org/1999/xlink" version="1.1" width="1080" height="1080" viewBox="0 0 1080 1080" xml:space="preserve">
<desc>Created with Fabric.js 5.2.4</desc>
<defs>
</defs>
<g transform="matrix(1 0 0 1 540 540)" id="09759731-d27a-4fef-85f5-9ca69e60d9fc"  >
<rect style="stroke: none; stroke-width: 1; stroke-dasharray: none; stroke-linecap: butt; stroke-dashoffset: 0; stroke-linejoin: miter; stroke-miterlimit: 4; fill: rgb(255,255,255); fill-rule: nonzero; opacity: 1; visibility: hidden;" vector-effect="non-scaling-stroke"  x="-540" y="-540" rx="0" ry="0" width="1080" height="1080" />
</g>
<g transform="matrix(1 0 0 1 540 540)" id="92b177d9-e493-4810-b8cc-cbc4c6774af8"  >
</g>
<g transform="matrix(12.56 0 0 12.56 540 540)"  >
<path style="stroke: rgb(255,255,255); stroke-width: 0; stroke-dasharray: none; stroke-linecap: butt; stroke-dashoffset: 0; stroke-linejoin: miter; stroke-miterlimit: 4; fill: rgb(231,131,131); fill-rule: nonzero; opacity: 1;" vector-effect="non-scaling-stroke"  transform=" translate(-50, -50)" d="M 90.375 90.375 L 9.625 90.375 L 9.625 9.625 L 90.375 9.625 L 90.375 90.375 z M 11.625 88.375 L 88.375 88.375 L 88.375 11.625 L 11.625 11.625 L 11.625 88.375 z" stroke-linecap="round" />
</g>
<g transform="matrix(1.78 0 0 1.78 540 509.86)"  >
<path style="stroke: rgb(0,0,0); stroke-width: 0; stroke-dasharray: none; stroke-linecap: butt; stroke-dashoffset: 0; stroke-linejoin: miter; stroke-miterlimit: 4; fill: rgb(231,131,131); fill-rule: nonzero; opacity: 1;" vector-effect="non-scaling-stroke"  transform=" translate(-254.53, -250.46)" d="M 254.97 34.75 C 224.49 34.583 195.95 56.870000000000005 175.438 96.906 C 175.363 97.052 175.262 97.16600000000001 175.188 97.31200000000001 L 43.063 326.783 L 42.843 327.12600000000003 C 18.5 365.413 13.377 401.515 28.47 428.03 C 43.55 454.52799999999996 77.09700000000001 468.15599999999995 121.97 465.938 L 387.063 465.938 C 431.95 468.16499999999996 465.508 454.534 480.59299999999996 428.031 C 495.68299999999994 401.521 490.549 365.43600000000004 466.21799999999996 327.15700000000004 L 465.99799999999993 326.78200000000004 L 335.28 98.064 C 335.21999999999997 97.94399999999999 335.15599999999995 97.839 335.094 97.72 C 314.146 57.457 285.468 34.917 254.969 34.75 z M 255.03 53.594 C 268.606 53.724000000000004 281.483 60.524 293.156 71.937 C 304.762 83.28399999999999 315.71 99.39 326.562 120.281 C 326.625 120.403 326.687 120.50500000000001 326.75 120.626 L 441.97 322.18899999999996 C 442.00300000000004 322.24199999999996 442.028 322.29099999999994 442.062 322.34499999999997 L 442.187 322.565 C 455.107 342.839 463.582 360.625 467.469 376.532 C 471.379 392.542 470.532 407.18 463.62399999999997 418.94 C 456.71599999999995 430.7 444.402 438.473 428.84399999999994 442.846 C 413.3999999999999 447.186 394.33599999999996 448.502 371.4359999999999 447.346 L 137.625 447.346 C 112.78 448.604 92.89500000000001 447.026 77.22 442.221 C 61.44 437.38100000000003 49.54 428.771 43.5 416.531 C 37.46 404.294 37.638 389.734 42 374.095 C 46.333 358.56 54.815 341.487 66.875 322.56500000000005 L 67.095 322.18800000000005 L 183.562 120 C 183.64200000000002 119.843 183.732 119.72 183.812 119.562 C 194.51 98.644 205.32 82.6 216.875 71.376 C 228.517 60.069 241.45499999999998 53.46300000000001 255.031 53.596000000000004 z M 302.687 115.68700000000001 L 274.15700000000004 339.71900000000005 L 232.31300000000005 339.71900000000005 L 204.438 120.5 C 203.034 123.056 201.628 125.705 200.218 128.47 L 200.125 128.688 L 200 128.90599999999998 L 83.062 331.876 L 82.969 332.063 L 82.84299999999999 332.25 C 71.28 350.346 63.598 366.226 60 379.125 C 56.402 392.025 56.892 401.447 60.25 408.25 C 63.608 415.053 70.175 420.53 82.72 424.375 C 95.262 428.22 113.39 429.922 137.125 428.688 L 137.375 428.656 L 371.688 428.656 L 371.938 428.686 C 393.788 429.82399999999996 411.246 428.406 423.813 424.876 C 436.37899999999996 421.34299999999996 443.635 416.049 447.5 409.469 C 451.365 402.889 452.478 393.924 449.313 380.969 C 446.147 368.01099999999997 438.581 351.59499999999997 426.219 332.249 L 426.093 332.06100000000004 L 425.968 331.843 L 310.31 129.56300000000002 L 310.217 129.40500000000003 L 310.15299999999996 129.21800000000002 C 307.65299999999996 124.39000000000001 305.16299999999995 119.89200000000002 302.68299999999994 115.68600000000002 z M 231.28 361.875 L 275.187 361.875 L 275.187 405.781 L 231.28 405.781 L 231.28 361.876 z" stroke-linecap="round" />
</g>
<g transform="matrix(1 0 0 1 531.73 574.6)"  >
<rect style="stroke: none; stroke-width: 1; stroke-dasharray: none; stroke-linecap: butt; stroke-dashoffset: 0; stroke-linejoin: miter; stroke-miterlimit: 4; fill: rgb(255,255,255); fill-rule: nonzero; opacity: 1; visibility: hidden;" vector-effect="non-scaling-stroke"  x="-540" y="-540" rx="0" ry="0" width="1080" height="1080" />
</g>
<g transform="matrix(1 0 0 1 548.27 505.4)"  >
<rect style="stroke: none; stroke-width: 1; stroke-dasharray: none; stroke-linecap: butt; stroke-dashoffset: 0; stroke-linejoin: miter; stroke-miterlimit: 4; fill: rgb(255,255,255); fill-rule: nonzero; opacity: 1; visibility: hidden;" vector-effect="non-scaling-stroke"  x="-540" y="-540" rx="0" ry="0" width="1080" height="1080" />
</g>
<g transform="matrix(1 0 0 1 294.01 540)"  >
<path style="stroke: rgb(0,0,0); stroke-width: 0; stroke-dasharray: none; stroke-linecap: butt; stroke-dashoffset: 0; stroke-linejoin: miter; stroke-miterlimit: 4; fill: rgb(255,255,255); fill-rule: nonzero; opacity: 1;" vector-effect="non-scaling-stroke"  transform=" translate(-256, -256)" d="M 120.16 45 C 109.02639691629608 45.00110435978435 100.00110435978434 54.02639691629609 100 65.16000000000001 L 100 446.84000000000003 C 100.00110435978436 457.97360308370395 109.0263969162961 466.99889564021566 120.16 467 L 185.84 467 C 196.97360308370392 466.99889564021566 205.99889564021566 457.9736030837039 206 446.84 L 206 65.16 C 205.99889564021564 54.02639691629608 196.9736030837039 45.001104359784335 185.83999999999997 45 L 120.16 45 z M 326.15999999999997 45 C 315.02639691629605 45.00110435978437 306.00110435978434 54.026396916296115 306 65.16000000000001 L 306 446.84000000000003 C 306.00110435978434 457.97360308370395 315.0263969162961 466.99889564021566 326.16 467 L 391.84000000000003 467 C 402.97360308370395 466.99889564021566 411.99889564021566 457.9736030837039 412 446.84 L 412 65.16 C 411.99889564021566 54.02639691629608 402.9736030837039 45.00110435978433 391.84 45 L 326.15999999999997 45 z" stroke-linecap="round" />
</g>
<g transform="matrix(1 0 0 1 764.49 524.37)"  >
<path style="stroke: rgb(0,0,0); stroke-width: 0; stroke-dasharray: none; stroke-linecap: butt; stroke-dashoffset: 0; stroke-linejoin: miter; stroke-miterlimit: 4; fill: rgb(255,255,255); fill-rule: nonzero; opacity: 1;" vector-effect="non-scaling-stroke"  transform=" translate(-249.64, -256)" d="M 208 151 C 180 151 147.622 168.102 117.008 188.512 C 86.393 208.922 58.16799999999999 233.106 41.63799999999999 249.637 L 35.27 256 L 41.637 262.363 C 58.167 278.89300000000003 86.393 303.079 117.007 323.488 C 147.623 343.898 180 361 208 361 L 211.73 361 L 214.363 358.363 C 223.007 349.72 230.15 339.743 235.853 328.89300000000003 C 215.383 327.81500000000005 198.937 318.783 188.086 305.76300000000003 C 176.512 291.872 171 273.874 171 256 C 171 238.125 176.512 220.127 188.086 206.238 C 198.936 193.218 215.383 184.185 235.854 183.108 C 230.15 172.258 223.007 162.28 214.364 153.638 L 211.728 151 L 208 151 z M 240 201 C 222.4 201 210.34 207.65 201.914 217.762 C 193.488 227.872 189 241.875 189 256 C 189 270.125 193.488 284.127 201.914 294.238 C 210.34 304.348 222.4 311 240 311 L 243.7 311 C 245.58999999999997 305.724 247.185 300.315 248.49599999999998 294.818 C 245.99599999999998 296.178 243.17199999999997 297 239.99999999999997 297 C 230.71799999999996 297 224.34999999999997 290.08 220.63699999999997 282.652 C 216.92199999999997 275.224 214.99999999999997 266.05199999999996 214.99999999999997 256 C 214.99999999999997 245.947 216.92199999999997 236.776 220.63699999999997 229.348 C 224.35 221.918 230.717 215 240 215 C 243.172 215 245.995 215.822 248.496 217.182 C 247.186 211.685 245.591 206.27599999999998 243.699 201 L 240 201 z M 416 208 L 416 240 L 320 240 L 320 272 L 416 272 L 416 304 L 464 256 L 416 208 z M 248 224 C 243.58172200135365 224 240 231.1634440027073 240 240 C 240 248.8365559972927 243.58172200135365 256 248 256 C 252.41827799864635 256 256 248.8365559972927 256 240 C 256 231.1634440027073 252.41827799864635 224 248 224 z" stroke-linecap="round" />
</g>
</svg>