<?xml version="1.0" encoding="UTF-8" standalone="no" ?>
<!DOCTYPE svg PUBLIC "-//W3C//DTD SVG 1.1//EN" "http://www.w3.org/Graphics/SVG/1.1/DTD/svg11.dtd">
<svg xmlns="http://www.w3.org/2000/svg" xmlns:xlink="http://www.w3.org/1999/xlink" version="1.1" width="1080" height="1080" viewBox="0 0 1080 1080" xml:space="preserve">
<desc>Created with Fabric.js 5.2.4</desc>
<defs>
</defs>
<g transform="matrix(1 0 0 1 540 540)" id="b439b2e9-0db5-4151-82f5-6f4e57ff2532"  >
<rect style="stroke: none; stroke-width: 1; stroke-dasharray: none; stroke-linecap: butt; stroke-dashoffset: 0; stroke-linejoin: miter; stroke-miterlimit: 4; fill: rgb(255,255,255); fill-rule: nonzero; opacity: 1; visibility: hidden;" vector-effect="non-scaling-stroke"  x="-540" y="-540" rx="0" ry="0" width="1080" height="1080" />
</g>
<g transform="matrix(1 0 0 1 540 540)" id="2976971c-08b3-4415-b4fa-6a6353b6dfcf"  >
</g>
<g transform="matrix(1 0 0 1 541 541)" id="5fa1114e-5cb0-4cfa-810d-5e3368ce9b3f"  >
<path style="stroke: rgb(139,136,136); stroke-width: 2; stroke-dasharray: none; stroke-linecap: butt; stroke-dashoffset: 0; stroke-linejoin: miter; stroke-miterlimit: 4; fill: rgb(255,255,255); fill-rule: nonzero; opacity: 1;" vector-effect="non-scaling-stroke"  transform=" translate(-254.6, -255.97)" d="M 17.91 19.47 L 17.91 32.53 L 70.38 76.31 C 51.78999999999999 84.51 33.08 97.75 17.909999999999997 114.9 L 17.909999999999997 161.7 L 82.75 245.6 C 60.239999999999995 258.2 36.68 271.4 17.909999999999997 291.9 L 17.909999999999997 343.2 L 50.16 420.9 C 39.199999999999996 420.7 28.339999999999996 421.79999999999995 17.909999999999997 424.79999999999995 L 17.909999999999997 444.4 C 30.129999999999995 439.9 43.72 438.7 58.089999999999996 439.9 L 79.94 492.5 L 100.2 492.5 L 76.38 435.3 C 109.6 408.8 151.5 391.7 195.3 391.2 L 265.5 482 C 240.3 483.4 212.3 485.2 188.8 492.5 L 298.3 492.5 C 334.8 433 373.4 390.8 434.4 381.2 C 453 392.9 473.59999999999997 412.7 491.29999999999995 427.5 L 491.29999999999995 403.2 L 441.69999999999993 361.8 C 438.19999999999993 292.9 458.79999999999995 243.9 483.29999999999995 209.9 L 491.29999999999995 213.9 L 491.29999999999995 193 L 481.79999999999995 188.2 C 473.9 167.79999999999998 468.69999999999993 141.39999999999998 469.29999999999995 115.1 C 469.79999999999995 87.46 476.49999999999994 60.17999999999999 491.29999999999995 39.30999999999999 L 491.29999999999995 19.56 C 402.09999999999997 19.369999999999997 312.79999999999995 19.459999999999997 223.59999999999997 19.459999999999997 L 361.59999999999997 29.169999999999998 C 355.59999999999997 44.589999999999996 349.79999999999995 60.61 346.49999999999994 77.05 C 343.69999999999993 90.78 342.8999999999999 104.99 345.59999999999997 118.99 L 205.9 48.06 C 204.20000000000002 38.25 201.6 28.150000000000002 201.9 19.470000000000002 L 183.1 19.470000000000002 C 182.9 25.550000000000004 183.5 31.480000000000004 184.5 37.19 L 149.7 19.47 L 91.59 19.47 C 84.78 30.98 79.9 43.79 77.78 58.13 L 31.47 19.47 z M 112.5 21.529999999999998 L 181.8 56.75 C 170.3 77.01 161 100.2 159.5 126.3 L 95.16 72.62 C 95.44 52.120000000000005 101.8 36.080000000000005 112.5 21.53 z M 381.1 30.559999999999995 L 470.6 36.839999999999996 C 456.90000000000003 60.099999999999994 451.1 87.71 450.6 114.69999999999999 C 450.1 136.2 453 157.29999999999998 458.20000000000005 176.2 L 368.70000000000005 130.7 C 361.40000000000003 114.99999999999999 361.30000000000007 98.49999999999999 364.80000000000007 80.72 C 368.1000000000001 64.50999999999999 374.50000000000006 47.55 381.1000000000001 30.560000000000002 z M 198.4 65.19 L 343.7 139 C 313.8 166.3 300.2 201.8 297.2 241.3 L 178.1 141.8 C 177.4 114.50000000000001 187.1 85.19000000000001 198.4 65.19000000000001 z M 86.6 89.84 L 150.89999999999998 143.5 C 126.69999999999997 164.9 104.49999999999997 192.1 91.68999999999997 226.6 L 23.339999999999975 138.2 C 41.059999999999974 117.89999999999999 63.629999999999974 98.10999999999999 86.59999999999997 89.83999999999999 z M 361.6 148.1 L 466.6 201.39999999999998 C 442.90000000000003 235.29999999999998 422.90000000000003 282.79999999999995 422.70000000000005 346 L 315.1 256.2 C 320.40000000000003 211.5 334.90000000000003 170.6 361.6 148.1 z M 165.3 155.6 L 291.1 260.5 C 251.70000000000002 283 216.40000000000003 314.3 197.00000000000003 362.8 L 105.40000000000003 244.3 C 119.00000000000003 208.60000000000002 140.70000000000005 177.20000000000002 165.30000000000004 155.60000000000002 z M 94.31 260.5 L 181.60000000000002 373.4 C 140 376.7 101 393.2 69 417.5 L 25.25 312.2 C 45.31 288.9 72.14 273 94.31 260.5 z M 306.4 273.2 L 417.2 365.7 C 359 380 319.9 423.2 285.7 477.6 L 210.39999999999998 380.20000000000005 C 230.89999999999998 332.20000000000005 268.7 294.00000000000006 306.4 273.20000000000005 z" stroke-linecap="round" />
</g>
<g transform="matrix(1 0 0 1 540 540)" id="26949b3c-eee8-48b2-8708-0fb58a6a0d1b"  >
<path style="stroke: rgb(105,125,139); stroke-width: 1; stroke-dasharray: none; stroke-linecap: butt; stroke-dashoffset: 0; stroke-linejoin: miter; stroke-miterlimit: 4; fill: rgb(105,125,139); fill-opacity: 0.53; fill-rule: nonzero; opacity: 1;" vector-effect="non-scaling-stroke"  transform=" translate(-254.47, -255.13)" d="M 333.906 18.5 C 318.958 18.5 307.031 30.425 307.031 45.375 C 307.031 60.325 318.96 72.25 333.907 72.25 C 348.854 72.25 360.782 60.322 360.782 45.375 C 360.782 30.427999999999997 348.854 18.5 333.907 18.5 z M 101.969 18.72 C 131.552 56.42 154.135 90.986 168.437 119.656 C 176.555 135.931 182.169 150.34900000000002 185.12400000000002 162.844 C 188.07900000000004 175.339 188.73400000000004 186.054 184.74900000000002 195.314 C 180.76300000000003 204.571 170.54700000000003 210.384 159.84300000000002 210.188 C 149.138 209.992 137.193 205.808 122.62300000000002 198.03099999999998 C 96.54000000000002 184.10799999999998 62.033000000000015 157.94299999999998 17.937000000000012 116.87599999999998 L 17.937000000000012 204.09599999999998 C 35.15400000000001 204.56599999999997 51.271000000000015 205.96999999999997 66.21700000000001 208.18899999999996 C 72.70700000000001 202.09899999999996 81.41000000000001 198.34499999999997 90.93700000000001 198.34499999999997 C 106.95700000000001 198.34499999999997 120.67900000000002 208.95099999999996 125.40500000000002 223.46999999999997 C 125.74500000000002 223.60499999999996 126.09900000000002 223.73699999999997 126.43500000000002 223.87499999999997 C 156.173 236.02199999999996 176.62 252.75199999999998 181.53000000000003 274.155 C 183.98600000000002 284.85799999999995 181.81200000000004 296.31199999999995 175.43700000000004 306.438 C 169.06300000000005 316.563 158.82100000000003 325.634 144.75000000000003 333.875 C 117.86500000000002 349.621 76.46300000000002 362.493 17.937000000000026 370.781 L 17.937000000000026 491.751 L 40 491.751 C 70.35300000000001 443.68699999999995 98.88300000000001 409.466 123.97 386.657 C 149.835 363.137 171.82 351.241 190.406 349.657 C 200.20000000000002 348.823 210.156 351.414 217.594 358.157 C 225.03 364.9 229.60399999999998 374.979 231.624 387.657 C 235.347 411.01099999999997 231.011 444.49699999999996 216.374 491.751 L 246.5 491.751 C 245.362 465.623 247.56 442.416 252.47 424.563 C 255.24 414.48699999999997 258.746 406.02 263.375 399.376 C 268.005 392.73199999999997 274.287 387.32 282.469 386.532 C 290.856 385.726 297.74399999999997 390.23199999999997 303.655 396.032 C 309.56699999999995 401.83599999999996 315.109 409.69599999999997 320.74899999999997 419.44 C 331.253 437.585 341.89899999999994 462.542 352.12399999999997 491.752 L 389.654 491.752 C 358.286 450.206 336.32 413.262 324.437 384.096 C 317.781 367.76 314.13300000000004 353.92 314.249 342.06600000000003 C 314.307 336.136 315.336 330.58200000000005 318.029 325.658 C 320.725 320.73400000000004 325.336 316.726 330.719 314.783 C 339.11899999999997 311.75300000000004 348.449 312.933 359.061 316.533 C 369.673 320.13300000000004 381.863 326.433 396.09299999999996 335.659 C 421.09 351.864 452.794 377.842 491 414 L 491 319.687 C 485.98 319.487 481.09 319.207 476.28 318.90700000000004 C 466.56399999999996 331.857 451.09599999999995 340.28100000000006 433.75 340.28100000000006 C 410.175 340.28100000000006 390.09000000000003 324.72400000000005 383.187 303.3760000000001 C 379.41700000000003 302.15600000000006 375.791 300.8730000000001 372.344 299.5320000000001 C 342.038 287.7420000000001 322.567 270.48500000000007 320.781 248.1580000000001 C 318.997 225.8320000000001 334.945 204.20800000000008 364.251 183.8780000000001 C 392.443 164.3180000000001 434.366 145.2140000000001 491.001 127.5960000000001 L 491.001 18.72 L 444.28099999999995 18.72 C 418.799 72.00999999999999 392.948 112.732 369.1569999999999 140.688 C 344.55499999999995 169.59799999999998 322.7399999999999 186.112 301.6869999999999 186.438 C 291.1629999999999 186.601 281.1139999999999 181.112 275.2199999999999 172.03099999999998 C 269.32499999999993 162.95099999999996 266.60599999999994 150.98399999999998 266.1249999999999 136.00099999999998 C 265.2349999999999 108.28899999999997 272.4149999999999 69.48099999999998 289.3449999999999 18.720999999999975 L 254.40499999999992 18.720999999999975 C 256.7489999999999 56.553999999999974 256.1149999999999 87.52799999999998 252.5949999999999 110.25099999999998 C 250.67499999999993 122.63699999999997 248.0149999999999 132.68099999999998 244.12499999999991 140.62599999999998 C 240.23499999999993 148.56999999999996 234.60899999999992 155.22599999999997 226.24999999999991 157.12599999999998 C 217.88999999999993 159.02599999999998 209.7199999999999 155.14899999999997 203.06199999999993 149.063 C 196.40499999999992 142.97799999999998 190.14499999999992 134.21599999999998 183.62499999999991 122.37599999999999 C 171.21099999999993 99.833 157.9849999999999 65.60299999999998 144.1869999999999 18.719999999999985 L 101.97 18.719999999999985 z M 239.68699999999998 200.72 C 259.955 200.845 282.29699999999997 226.117 291.78 261.25 C 302.24499999999995 300.017 293.09599999999995 336.128 271.375 341.906 C 249.655 347.684 223.589 320.923 213.125 282.156 C 202.661 243.389 211.779 207.27800000000002 233.5 201.5 C 235.536 200.958 237.59 200.706 239.688 200.72 z M 90.93699999999998 217.03 C 81.14999999999998 217.03 73.40499999999999 224.776 73.40499999999999 234.562 C 73.40499999999999 244.34900000000002 81.14999999999999 252.062 90.93499999999999 252.062 C 100.72299999999998 252.062 108.46799999999999 244.34900000000002 108.46799999999999 234.562 C 108.46799999999999 224.776 100.722 217.032 90.93599999999999 217.032 z M 433.749 252.656 C 414.607 252.656 399.31100000000004 267.983 399.31100000000004 287.126 C 399.31100000000004 306.26599999999996 414.607 321.594 433.749 321.594 C 452.891 321.594 468.21900000000005 306.267 468.21900000000005 287.124 C 468.21900000000005 267.98400000000004 452.8910000000001 252.656 433.749 252.656 z M 40.72 269.594 C 28.35 269.594 18.529999999999998 279.414 18.529999999999998 291.781 C 18.529999999999998 304.151 28.349999999999998 313.971 40.72 313.971 C 53.087 313.971 62.906 304.151 62.906 291.781 C 62.906 279.414 53.086 269.595 40.718999999999994 269.595 z M 403.375 422.594 C 391.975 422.594 382.937 431.63 382.937 443.031 C 382.937 454.434 391.975 463.501 403.375 463.501 C 414.775 463.501 423.813 454.431 423.813 443.03099999999995 C 423.813 431.6329999999999 414.77299999999997 422.59499999999997 403.375 422.59499999999997 z" stroke-linecap="round" />
</g>
<g transform="matrix(NaN NaN NaN NaN 0 0)"  >
<g style=""   >
</g>
</g>
</svg>